<svg width="1200" height="627" viewBox="0 0 1200 627" fill="none" xmlns="http://www.w3.org/2000/svg">
<rect width="1200" height="627" fill="url(#paint0_linear_232_278)"/>
<path d="M284.906 339.16C279.106 339.16 273.77 337.961 268.898 335.564C264.103 333.167 260.198 329.764 257.182 325.356L265.882 317.004C268.357 320.02 271.373 322.495 274.93 324.428C278.565 326.361 282.045 327.328 285.37 327.328C289.314 327.328 292.446 326.4 294.766 324.544C297.163 322.688 298.362 320.252 298.362 317.236C298.362 315.071 297.975 313.292 297.202 311.9C296.429 310.431 294.998 309 292.91 307.608C290.822 306.139 287.613 304.321 283.282 302.156C277.559 299.372 273.035 296.743 269.71 294.268C266.385 291.793 263.949 289.164 262.402 286.38C260.855 283.596 260.082 280.387 260.082 276.752C260.082 272.576 261.165 268.903 263.33 265.732C265.573 262.484 268.666 260.009 272.61 258.308C276.554 256.529 281.117 255.64 286.298 255.64C291.943 255.64 296.97 256.761 301.378 259.004C305.863 261.247 309.15 264.301 311.238 268.168L301.842 275.128C299.986 272.731 297.743 270.875 295.114 269.56C292.562 268.168 289.817 267.472 286.878 267.472C283.089 267.472 280.111 268.284 277.946 269.908C275.858 271.455 274.814 273.659 274.814 276.52C274.814 278.299 275.278 279.845 276.206 281.16C277.211 282.397 278.951 283.789 281.426 285.336C283.978 286.883 287.845 288.893 293.026 291.368C300.373 294.848 305.515 298.483 308.454 302.272C311.47 305.984 312.978 310.663 312.978 316.308C312.978 320.871 311.818 324.892 309.498 328.372C307.178 331.775 303.891 334.443 299.638 336.376C295.385 338.232 290.474 339.16 284.906 339.16ZM658.948 295.08C658.948 290.44 658.755 285.413 658.368 280H670.78C671.012 282.552 671.128 285.259 671.128 288.12H671.36C673.139 285.181 675.613 282.9 678.784 281.276C682.032 279.652 685.551 278.84 689.34 278.84C696.764 278.84 702.603 281.547 706.856 286.96C711.109 292.296 713.236 299.643 713.236 309C713.236 318.357 711.071 325.743 706.74 331.156C702.409 336.492 696.493 339.16 688.992 339.16C685.203 339.16 681.839 338.503 678.9 337.188C675.961 335.796 673.796 333.901 672.404 331.504H672.056V366.072H658.948V295.08ZM686.324 329.3C690.655 329.3 694.019 327.483 696.416 323.848C698.891 320.213 700.128 315.148 700.128 308.652C700.128 302.233 698.968 297.361 696.648 294.036C694.328 290.711 690.925 289.048 686.44 289.048C682.187 289.048 678.707 290.363 676 292.992C673.371 295.621 672.056 298.985 672.056 303.084V314.568C672.056 318.821 673.409 322.34 676.116 325.124C678.823 327.908 682.225 329.3 686.324 329.3Z" fill="#EE526E"/>
<path d="M331.996 272.112C329.366 272.112 327.24 271.416 325.616 270.024C324.069 268.555 323.296 266.621 323.296 264.224C323.296 261.749 324.069 259.816 325.616 258.424C327.24 256.955 329.366 256.22 331.996 256.22C334.625 256.22 336.713 256.955 338.26 258.424C339.884 259.816 340.696 261.749 340.696 264.224C340.696 266.621 339.884 268.555 338.26 270.024C336.713 271.416 334.625 272.112 331.996 272.112ZM325.384 280H338.608V338H325.384V280ZM740.568 339.16C736.778 339.16 733.376 338.387 730.36 336.84C727.421 335.216 725.101 333.012 723.4 330.228C721.776 327.444 720.964 324.312 720.964 320.832C720.964 314.955 723.245 310.431 727.808 307.26C732.448 304.089 738.982 302.504 747.412 302.504H757.504V299.836C757.504 296.356 756.498 293.688 754.488 291.832C752.477 289.976 749.654 289.048 746.02 289.048C742.54 289.048 739.253 289.705 736.16 291.02C733.144 292.257 730.63 294.075 728.62 296.472L722.588 288.7C725.526 285.529 729.084 283.093 733.26 281.392C737.436 279.691 741.844 278.84 746.484 278.84C754.062 278.84 759.978 280.657 764.232 284.292C768.485 287.849 770.612 292.876 770.612 299.372V326.052C770.612 327.676 770.766 329.648 771.076 331.968C771.385 334.211 771.733 336.221 772.12 338H760.404C759.708 336.376 759.205 333.94 758.896 330.692H758.664C754.178 336.337 748.146 339.16 740.568 339.16ZM743.584 329.184C747.528 329.184 750.814 328.14 753.444 326.052C756.15 323.887 757.504 321.257 757.504 318.164V311.436H747.064C742.81 311.436 739.524 312.248 737.204 313.872C734.961 315.496 733.84 317.816 733.84 320.832C733.84 323.461 734.69 325.511 736.392 326.98C738.093 328.449 740.49 329.184 743.584 329.184Z" fill="#64D7C0"/>
<path d="M371.282 339.16C366.487 339.16 362.234 338.193 358.522 336.26C354.81 334.327 352.18 331.736 350.634 328.488L358.986 322.804C360.3 324.815 362.04 326.4 364.206 327.56C366.448 328.72 368.807 329.3 371.282 329.3C374.066 329.3 376.386 328.565 378.242 327.096C380.098 325.549 381.026 323.577 381.026 321.18C381.026 319.401 380.33 317.932 378.938 316.772C377.623 315.612 374.878 314.22 370.702 312.596C363.819 309.967 358.947 307.299 356.086 304.592C353.302 301.885 351.91 298.521 351.91 294.5C351.91 289.783 353.804 285.993 357.594 283.132C361.383 280.271 366.41 278.84 372.674 278.84C376.927 278.84 380.716 279.652 384.042 281.276C387.444 282.9 390.112 285.22 392.046 288.236L384.274 294.036C383.036 292.335 381.451 291.02 379.518 290.092C377.584 289.164 375.458 288.7 373.138 288.7C370.663 288.7 368.691 289.203 367.222 290.208C365.752 291.136 365.018 292.451 365.018 294.152C365.018 295.389 365.327 296.433 365.946 297.284C366.564 298.057 367.686 298.869 369.31 299.72C371.011 300.571 373.563 301.653 376.966 302.968C383.462 305.52 387.947 308.072 390.422 310.624C392.896 313.176 394.134 316.501 394.134 320.6C394.134 326.168 392.046 330.653 387.87 334.056C383.694 337.459 378.164 339.16 371.282 339.16ZM620.558 339.16C614.758 339.16 609.422 337.961 604.55 335.564C599.756 333.167 595.85 329.764 592.834 325.356L601.534 317.004C604.009 320.02 607.025 322.495 610.582 324.428C614.217 326.361 617.697 327.328 621.022 327.328C624.966 327.328 628.098 326.4 630.418 324.544C632.816 322.688 634.014 320.252 634.014 317.236C634.014 315.071 633.628 313.292 632.854 311.9C632.081 310.431 630.65 309 628.562 307.608C626.474 306.139 623.265 304.321 618.934 302.156C613.212 299.372 608.688 296.743 605.362 294.268C602.037 291.793 599.601 289.164 598.054 286.38C596.508 283.596 595.734 280.387 595.734 276.752C595.734 272.576 596.817 268.903 598.982 265.732C601.225 262.484 604.318 260.009 608.262 258.308C612.206 256.529 616.769 255.64 621.95 255.64C627.596 255.64 632.622 256.761 637.03 259.004C641.516 261.247 644.802 264.301 646.89 268.168L637.494 275.128C635.638 272.731 633.396 270.875 630.766 269.56C628.214 268.168 625.469 267.472 622.53 267.472C618.741 267.472 615.764 268.284 613.598 269.908C611.51 271.455 610.466 273.659 610.466 276.52C610.466 278.299 610.93 279.845 611.858 281.16C612.864 282.397 614.604 283.789 617.078 285.336C619.63 286.883 623.497 288.893 628.678 291.368C636.025 294.848 641.168 298.483 644.106 302.272C647.122 305.984 648.63 310.663 648.63 316.308C648.63 320.871 647.47 324.892 645.15 328.372C642.83 331.775 639.544 334.443 635.29 336.376C631.037 338.232 626.126 339.16 620.558 339.16Z" fill="#C08AFF"/>
<path d="M403.601 295.08C403.601 288.12 403.408 283.093 403.021 280H414.621C415.008 283.325 415.201 286.728 415.201 290.208H415.433C416.748 286.651 419.029 283.867 422.277 281.856C425.525 279.845 429.314 278.84 433.645 278.84C437.821 278.84 441.378 279.807 444.317 281.74C447.256 283.596 449.228 286.187 450.233 289.512C451.78 286.187 454.138 283.596 457.309 281.74C460.557 279.807 464.192 278.84 468.213 278.84C474.632 278.84 479.658 280.889 483.293 284.988C486.928 289.087 488.745 294.809 488.745 302.156V338H475.753V303.548C475.753 299.063 474.786 295.583 472.853 293.108C470.92 290.633 468.213 289.396 464.733 289.396C461.098 289.396 458.16 290.711 455.917 293.34C453.752 295.892 452.669 299.333 452.669 303.664V338H439.677V304.012C439.677 299.295 438.749 295.699 436.893 293.224C435.114 290.672 432.524 289.396 429.121 289.396C425.564 289.396 422.586 290.788 420.189 293.572C417.792 296.356 416.593 299.836 416.593 304.012V338H403.601V295.08ZM892.382 313.872H851.55C852.864 323.307 858.007 328.024 866.978 328.024C870.38 328.024 873.396 327.405 876.026 326.168C878.655 324.931 881.091 322.997 883.334 320.368L890.526 327.212C888.283 330.847 884.958 333.747 880.55 335.912C876.219 338.077 871.463 339.16 866.282 339.16C857.388 339.16 850.467 336.531 845.518 331.272C840.568 325.936 838.094 318.551 838.094 309.116C838.094 299.681 840.568 292.296 845.518 286.96C850.544 281.547 857.388 278.84 866.05 278.84C874.324 278.84 880.782 281.508 885.422 286.844C890.062 292.18 892.382 299.565 892.382 309V313.872ZM879.738 304.012C879.738 299.449 878.5 295.892 876.026 293.34C873.551 290.788 870.11 289.512 865.702 289.512C861.68 289.512 858.432 290.865 855.958 293.572C853.56 296.201 852.052 299.913 851.434 304.708H879.738V304.012Z" fill="#9E7647"/>
<path d="M528.504 339.16C519.379 339.16 512.187 336.492 506.928 331.156C501.747 325.743 499.156 318.357 499.156 309C499.156 299.643 501.747 292.296 506.928 286.96C512.187 281.547 519.379 278.84 528.504 278.84C537.629 278.84 544.783 281.547 549.964 286.96C555.223 292.296 557.852 299.643 557.852 309C557.852 318.357 555.223 325.743 549.964 331.156C544.783 336.492 537.629 339.16 528.504 339.16ZM528.504 329.3C533.531 329.3 537.475 327.521 540.336 323.964C543.197 320.329 544.628 315.341 544.628 309C544.628 302.659 543.197 297.709 540.336 294.152C537.475 290.517 533.531 288.7 528.504 288.7C523.477 288.7 519.533 290.517 516.672 294.152C513.811 297.709 512.38 302.659 512.38 309C512.38 315.341 513.811 320.329 516.672 323.964C519.533 327.521 523.477 329.3 528.504 329.3ZM809.636 339.16C800.742 339.16 793.782 336.492 788.756 331.156C783.806 325.82 781.332 318.435 781.332 309C781.332 299.565 783.806 292.18 788.756 286.844C793.782 281.508 800.742 278.84 809.636 278.84C814.817 278.84 819.38 279.845 823.324 281.856C827.268 283.789 830.322 286.573 832.488 290.208L824.6 297.168C823.053 294.616 821.004 292.644 818.452 291.252C815.9 289.783 813.154 289.048 810.216 289.048C805.266 289.048 801.4 290.827 798.616 294.384C795.832 297.864 794.44 302.736 794.44 309C794.44 315.187 795.832 320.059 798.616 323.616C801.4 327.173 805.266 328.952 810.216 328.952C813.154 328.952 815.9 328.217 818.452 326.748C821.004 325.279 823.053 323.268 824.6 320.716L832.488 327.676C830.322 331.388 827.268 334.249 823.324 336.26C819.457 338.193 814.894 339.16 809.636 339.16Z" fill="#E2C488"/>
<path d="M920.242 339.16C915.448 339.16 911.194 338.193 907.482 336.26C903.77 334.327 901.141 331.736 899.594 328.488L907.946 322.804C909.261 324.815 911.001 326.4 913.166 327.56C915.409 328.72 917.768 329.3 920.242 329.3C923.026 329.3 925.346 328.565 927.202 327.096C929.058 325.549 929.986 323.577 929.986 321.18C929.986 319.401 929.29 317.932 927.898 316.772C926.584 315.612 923.838 314.22 919.662 312.596C912.78 309.967 907.908 307.299 905.046 304.592C902.262 301.885 900.87 298.521 900.87 294.5C900.87 289.783 902.765 285.993 906.554 283.132C910.344 280.271 915.37 278.84 921.634 278.84C925.888 278.84 929.677 279.652 933.002 281.276C936.405 282.9 939.073 285.22 941.006 288.236L933.234 294.036C931.997 292.335 930.412 291.02 928.478 290.092C926.545 289.164 924.418 288.7 922.098 288.7C919.624 288.7 917.652 289.203 916.182 290.208C914.713 291.136 913.978 292.451 913.978 294.152C913.978 295.389 914.288 296.433 914.906 297.284C915.525 298.057 916.646 298.869 918.27 299.72C919.972 300.571 922.524 301.653 925.926 302.968C932.422 305.52 936.908 308.072 939.382 310.624C941.857 313.176 943.094 316.501 943.094 320.6C943.094 326.168 941.006 330.653 936.83 334.056C932.654 337.459 927.125 339.16 920.242 339.16Z" fill="#1234F5"/>
<path d="M1120.9 453.404C1118.8 453.657 1125.18 453.733 1127.27 453.379C1132.37 452.519 1137.66 452.048 1142.67 450.798C1143.06 450.701 1145.23 449.936 1145.25 450.618C1145.26 451.104 1145.35 451.567 1145.58 452.005C1147.37 455.439 1149.68 458.749 1151.96 461.864C1154.19 464.92 1156.72 467.726 1158.71 470.953C1159.63 472.44 1156.8 473.239 1155.81 474.009C1150.67 478.011 1145.69 482.053 1141.6 487.147C1140.86 488.074 1137.78 493.247 1136.51 493.506C1133.91 491.193 1130.67 486.214 1128.18 483.781C1124.46 480.142 1121.31 475.794 1116.86 472.976C1115.93 472.386 1116.96 469.828 1117.18 469.099C1118.25 465.56 1118.84 462.03 1119.59 458.424C1120.01 456.437 1120.97 452.577 1121.04 451.614" stroke="#64D7C0" stroke-width="4" stroke-linecap="round"/>
<path d="M1116.28 452.684C1125.15 449.417 1135.24 452.194 1144.17 449.535C1144.86 449.33 1147.19 448.485 1147.59 449.361C1148.99 452.425 1149.85 455.64 1151.47 458.666C1153.26 462.01 1154.21 465.796 1156.04 469.065C1156.38 469.681 1156.67 470.908 1157.14 471.352C1158.43 472.563 1155.99 473.857 1155.22 474.483C1150.43 478.361 1146.25 482.127 1142.27 486.839C1140.98 488.365 1137.66 491.131 1137.25 493.211C1137.02 494.376 1135.54 492.943 1135.14 492.606C1131.76 489.783 1128.66 486.768 1125.47 483.73C1122.54 480.948 1116.59 475.3 1114.32 471.895C1114.32 471.895 1113.6 471.937 1114.67 468.775C1115.14 467.389 1116.99 459.609 1118.06 455.204C1118.29 454.294 1118.55 449.91 1119.67 450.787" stroke="#E2C488" stroke-width="4" stroke-linecap="round"/>
<path d="M1145.58 451.005C1145.85 456.794 1146.59 462.398 1148.38 467.929C1149.2 470.457 1149.67 471.551 1148.42 473.854C1144.97 480.226 1140.99 486.292 1137.65 492.722C1137.21 493.578 1136.26 496.052 1136.02 495.116C1135.87 494.496 1136.46 493.102 1136.59 492.439" stroke="#1234F5" stroke-width="4" stroke-linecap="round"/>
<path d="M1122 453.13C1122.58 457.761 1121.35 462.477 1121.45 467.132C1121.49 468.762 1120.82 470.985 1121.8 472.401C1124.75 476.636 1128.7 480.584 1132.31 484.223C1134.63 486.569 1137.09 488.73 1139.24 491.245C1139.7 491.78 1141.3 493.166 1140.14 493.076" stroke="#C08AFF" stroke-width="4" stroke-linecap="round"/>
<path d="M1148.23 472.458C1153.08 472.58 1154.64 470.967 1159.51 471.896" stroke="#C08AFF" stroke-width="4" stroke-linecap="round"/>
<path d="M1121.33 471.083C1119.2 470.98 1117.01 471.425 1114.89 471.582C1112.1 471.787 1114.83 472.356 1116.21 472.124C1116.98 471.994 1119.4 471.457 1117.23 471.764C1115.44 472.018 1113.58 472.809 1116.26 471.409" stroke="#C08AFF" stroke-width="4" stroke-linecap="round"/>
<path d="M1148.2 472.816C1146.73 472.552 1145.29 471.259 1144.28 470.27C1140.73 466.803 1136.51 464.648 1132.49 461.849C1129.27 459.605 1125.9 457.652 1122.6 455.537C1122.12 455.23 1120.81 454.657 1120.85 454.12" stroke="#C08AFF" stroke-width="4" stroke-linecap="round"/>
<path d="M789.738 513.063C787.602 513.063 790.722 513.649 791.323 513.568C793.939 513.215 796.431 513.063 799.072 513.063C801.066 513.063 795.054 513.206 793.125 513.713C791.962 514.019 787.654 514.363 791.071 514.363C792.716 514.363 794.237 513.713 795.828 513.713C796.755 513.713 793.595 513.563 793.125 514.363C792.257 515.842 793.068 519.34 793.305 520.864C793.802 524.052 794.169 527.537 794.279 530.76C794.417 534.852 795.086 539.756 796.585 543.618C798.651 548.944 804.242 551.623 808.946 554.056C817.848 558.661 826.165 562.472 836.444 562.472C846.981 562.472 856.611 561.308 866.644 557.885C875.724 554.787 885.85 548.967 892.736 542.174C899.633 535.37 904.233 527.098 909.242 518.914C914.609 510.143 918.078 500.028 921.423 490.344C925.055 479.83 930.417 470.067 932.739 459.066C935.108 447.842 937.597 436.741 939.586 425.441C941.384 415.234 943.485 405.337 946.866 395.535C952.567 379.009 968.426 368.949 984.202 363.679C998.749 358.819 1018.49 358.614 1031.05 368.447C1044.04 378.614 1054.1 394.479 1058.01 410.56C1062.05 427.183 1065.43 444.166 1065.43 461.342C1065.43 469.269 1063.82 479.244 1065.76 487.022C1066.62 490.467 1066.08 494.556 1066.08 498.11C1066.08 500.76 1066.66 504.131 1065.58 506.561C1065.3 507.189 1065.79 508.512 1064.78 508.512C1063.09 508.512 1061.37 507.862 1059.6 507.862C1059.06 507.862 1054.73 507.862 1057 507.862C1059.92 507.862 1062.84 507.862 1065.76 507.862C1066.77 507.862 1074.61 508.261 1071.78 509.017C1069.12 509.728 1065.74 509.162 1062.98 509.162C1062.87 509.162 1066.72 509.455 1067.88 509.668C1071.4 510.309 1067.23 509.162 1065.76 509.162C1064.42 509.162 1060.09 509.677 1063.63 509.017C1066.02 508.573 1067.06 508.023 1064.14 508.837C1062.2 509.377 1061.49 510.177 1060.24 508.512" stroke="#64D7C0" stroke-width="4" stroke-linecap="round"/>
<path d="M1067.1 401.291C1067.4 401.59 1062.13 398.693 1060.45 397.899C1054.38 395.022 1047.67 390.508 1046.15 383.549C1045.43 380.304 1046.02 371.921 1051.42 375.848C1053.95 377.688 1057.1 386.45 1057.1 383.32C1057.1 377.983 1057.18 373.634 1059.67 368.65C1063.53 360.928 1066.74 366.604 1067.74 372.684C1069.47 383.184 1068.75 415.233 1068.75 404.592" stroke="#C08AFF" stroke-width="4" stroke-linecap="round"/>
<path d="M1073.85 403.366C1072.32 403.06 1070.23 399.757 1069.37 398.601C1066.57 394.879 1063.74 390.834 1061.75 386.612C1060.97 384.941 1059.84 379.647 1063.12 379.647C1065.25 379.647 1066.54 383.407 1066.83 385.11C1066.93 385.742 1066.93 383.831 1066.96 383.686C1067.33 381.283 1068.17 378.947 1069.39 376.85C1070.47 374.993 1075.18 367.631 1076.75 372.914C1079.18 381.162 1076.39 390.532 1074.78 398.705C1074.51 400.044 1073.85 402.693 1073.85 402.693" stroke="#EE526E" stroke-width="4" stroke-linecap="round"/>
<path d="M877.471 550.238C877.471 547.087 876.911 544.416 874.619 542.197C872.547 540.191 872.866 549.879 873.015 550.766C873.346 552.737 873.94 559.753 877.292 558.989C878.385 558.74 878.887 554.989 878.896 554.989" stroke="#9E7647" stroke-width="4" stroke-linecap="round"/>
<path d="M882.778 546.926C884.065 545.427 882.125 540.518 880.261 540.242C876.685 539.713 878.401 546.323 878.822 548.043C879.119 549.254 881.487 557.41 884.017 555.266C885.572 553.948 884.577 551.894 884.577 550.651" stroke="#1234F5" stroke-width="4" stroke-linecap="round"/>
<path d="M1005.94 358.762C1006.65 356.494 1007.07 353.16 1004.29 351.94C1001.33 351.121 1001.3 356.544 1001.33 358.762C1001.35 359.753 1001.95 369.219 1004.29 366.904C1005.47 365.733 1005.81 363.854 1005.94 363.459" stroke="#EE526E" stroke-width="4" stroke-linecap="round"/>
<path d="M1011.71 359.412C1012.87 357.161 1014.44 354.001 1012.11 351.884C1009.11 349.161 1007.39 353.391 1007.34 355.648C1007.29 357.921 1007.34 360.199 1007.34 362.473C1007.34 363.532 1007.22 366.103 1008.14 366.941C1009.68 368.347 1011.31 364.813 1011.31 363.861" stroke="#E2C488" stroke-width="4" stroke-linecap="round"/>
<path d="M935.865 437.375C935.335 437.138 934.904 436.853 934.309 436.677C933.243 436.361 932.22 436.025 931.06 435.911C930.13 435.82 929.106 435.717 928.165 435.78C927.634 435.816 927.214 435.853 926.898 436.171C926.381 436.692 925.894 437.301 926 437.962C926.239 439.467 928.13 440.946 929.854 441.742C932.554 442.99 936.016 443.466 939.211 443.466C940.432 443.466 941.769 443.472 942.794 442.946C943.382 442.645 944.306 441.97 943.836 441.399C943.194 440.619 942.216 439.95 941.212 439.405C940.956 439.266 940.362 439.027 940.061 439.027" stroke="#C08AFF" stroke-width="4" stroke-linecap="round"/>
<path d="M1089.57 140.792C1091.54 140.792 1093.38 140.131 1095.26 139.581C1100.15 138.152 1105.16 137.682 1110.15 136.707C1111.51 136.441 1113.6 135.097 1114.08 137.009C1114.8 139.873 1117.33 142.75 1119.1 145.028C1121.62 148.258 1124.59 151.114 1126.61 154.651C1127.32 155.894 1123.89 159.327 1123.22 160.31C1119.75 165.375 1119.39 172.387 1117.4 178.273C1117.4 178.792 1089.01 168.47 1085.39 166.221M1085.39 166.221C1084.13 165.442 1086.43 167.264 1085.39 166.221ZM1085.39 166.221C1085.39 166.382 1085.5 161.072 1085.39 160.31C1086.16 154.651 1086.91 150.45 1087.66 145.482C1087.97 143.458 1089.03 137.443 1089.03 139.491C1089.03 140.352 1088.48 140.986 1088.48 141.881" stroke="#C08AFF" stroke-width="4" stroke-linecap="round"/>
<path d="M1092.04 138.1C1090.98 145.218 1088.39 152.067 1086.47 159.008C1086.25 159.796 1084.35 166.757 1085.49 166.515C1088.02 165.976 1089.55 166.093 1092.07 167.092C1097.65 169.298 1103.85 170.553 1109.01 173.656C1111.27 175.014 1113.61 176.777 1115.98 177.911C1117.68 178.728 1118.3 174.457 1118.57 173.596C1120.32 168.104 1121.87 162.128 1124.81 157.094C1126.39 154.384 1127.75 154.434 1125.1 153.416" stroke="#9E7647" stroke-width="4" stroke-linecap="round"/>
<path d="M1113.54 137.524C1113.62 141.174 1114.16 144.709 1115.84 148.467C1117.14 151.357 1117.49 152.156 1117.78 155.724C1118.29 161.746 1116.49 166.351 1116.49 171.923C1116.49 175.811 1117.14 180.388 1117.14 176.978" stroke="#E2C488" stroke-width="4" stroke-linecap="round"/>
<path d="M1093.38 141.881C1092.55 147.115 1092.77 152.338 1093.38 157.587C1093.71 160.407 1094.56 160.654 1096.98 161.823C1100.87 163.696 1104.14 167.441 1107.42 170.205C1109.07 171.587 1117.27 180.251 1117.27 176.978" stroke="#EE526E" stroke-width="4" stroke-linecap="round"/>
<path d="M1119.53 152.774C1115.21 155.777 1131.47 150.824 1124.95 153.894C1122.74 154.93 1117.3 159.067 1118.26 156.829C1118.55 156.155 1121.35 154.891 1119.53 155.498" stroke="#64D7C0" stroke-width="4" stroke-linecap="round"/>
<path d="M1095.02 158.766C1093.13 160.442 1089.03 161.479 1087.94 163.668" stroke="#64D7C0" stroke-width="4" stroke-linecap="round"/>
<path d="M1117.27 155.045C1115.54 155.719 1114.06 154.11 1112.6 153.252C1108.55 150.877 1104.72 148.141 1100.48 146.078C1098.29 145.009 1095.43 143.991 1093.85 142.075C1093.42 141.544 1093.47 141.21 1092.9 141.21" stroke="#1234F5" stroke-width="4" stroke-linecap="round"/>
<path d="M838 167.102C842.537 164.304 849.057 163.544 854.317 163.544C859.065 163.544 847.32 163.602 845.542 163.989C839.206 165.37 850.345 163.608 852 163.544C852.494 163.525 844.646 164.754 843.028 166.015C842.477 166.445 844.096 165.06 844.408 164.434C845.51 162.226 845.948 160.129 846.429 157.714C848.587 146.9 850.364 137.179 855.401 127.081C870.899 96.0156 911.219 77.0739 944.971 79.1557C957.903 79.9534 970.906 86.0846 976.914 98.1284C981.677 107.675 980.666 119.989 973.069 127.773C967.643 133.332 957.851 132.633 951.576 128.86C947.5 126.409 950.582 119.541 952.464 116.607C958.279 107.539 970.235 107.529 979.576 109.789C999.405 114.586 1017.08 125.083 1026.51 143.979C1030.69 152.359 1035.55 162.019 1033.21 171.549C1030.73 181.63 1021.75 189.513 1012.11 192.695C1005.4 194.911 996.344 193.804 993.822 186.223C991.92 180.502 994.057 173.432 999.59 170.659C1006.04 167.425 1012.11 164.46 1019.41 166.213C1026.96 168.026 1034.73 170.475 1039.42 177.28C1051.1 194.222 1052.04 216.956 1050.27 236.668C1049.22 248.339 1049.37 260.307 1047.85 271.896C1047.35 275.688 1047.5 279.505 1046.47 283.112C1045.95 284.942 1034.64 284.495 1033.31 284.495C1023.56 284.495 1037.54 283.927 1040.26 283.606C1044.21 283.14 1047.87 282.716 1051.84 282.716C1055.7 282.716 1043.8 282.155 1040.31 283.803C1040.08 283.91 1050.43 282.977 1053.03 282.716C1054.78 282.54 1049.47 282.821 1047.75 283.211C1046.74 283.44 1042.08 283.752 1042.08 284.495" stroke="#1234F5" stroke-width="4" stroke-linecap="round"/>
<path d="M1053.26 219.487C1055.17 219.487 1060.36 217.195 1058.9 214.57C1056.89 210.957 1053.43 210.446 1049.41 210.767C1045.83 211.053 1040.7 213.75 1042.25 217.949C1043.23 220.583 1047.05 218.37 1047.79 219.851" stroke="#C08AFF" stroke-width="4" stroke-linecap="round"/>
<path d="M1052.89 227.499C1055.55 227.499 1059.45 225.352 1059.45 222.562C1059.45 218.791 1055.58 217.666 1052.35 217.666C1048.7 217.666 1043.39 220.433 1042.41 224.221C1041.42 228.064 1045.41 227.499 1047.43 227.499" stroke="#64D7C0" stroke-width="4" stroke-linecap="round"/>
<path d="M967.959 128.346C967.959 126.252 967.003 123.302 965.148 122.109C962.277 120.264 962.425 126.109 962.696 127.526C963.148 129.885 964.455 135.917 967.774 135.917C969.168 135.917 969.852 134.532 969.251 133.332" stroke="#64D7C0" stroke-width="4" stroke-linecap="round"/>
<path d="M1021.05 131.25C1022.79 129.922 1025.51 128.265 1025.44 125.77C1025.37 123.215 1021.6 123.289 1019.91 123.845C1017.87 124.517 1016.06 125.798 1014.74 127.475C1013.58 128.954 1011.88 130.741 1011.85 132.736C1011.8 135.271 1014.95 135.222 1016.45 134.1" stroke="#E2C488" stroke-width="4" stroke-linecap="round"/>
<path d="M291.5 218.5C299.517 218.5 321.5 219.5 315 218.5C309.213 218.5 294.213 218.5 300 218.5C303.299 218.5 315.799 218.5 312.5 218.5C310.924 218.5 303.036 218.5 303.036 218.5C303.036 207.734 303.036 213.601 303.036 208.195C303.036 202.789 301.253 174.694 298.585 155.984C295.138 131.809 308.061 106.619 321.031 86.9118C324.025 82.3626 326.991 77.6657 330.94 73.8192C335.582 69.2973 340.205 67.2282 346.277 65.1748C358.249 61.1258 375.133 59.0326 386.946 64.5873C394.372 68.0788 401.697 70.8479 407.712 76.5049C413.859 82.2859 419.195 87.6502 424.083 94.6331C429.889 102.927 437.711 107.782 447.477 110.285C460.932 113.734 471.565 106.76 483.106 100.844C491.624 96.4767 500.35 89.8355 507.49 83.5128C515.014 76.8505 524.241 71.1056 532.995 66.098C542.852 60.459 551.34 52.9773 561.903 48.3475C571.521 44.1316 581.356 41.182 591.759 39.4932C600.612 38.056 608.481 39.9933 616.919 42.3047C627.899 45.3127 640.287 49.2424 649.317 56.2785C655.607 61.1803 661.125 68.9204 663.835 76.2531C666.638 83.8355 670.74 90.488 672.15 98.5776C672.53 100.753 678.911 129.423 676.631 129.547C673.11 129.737 669.737 130.302 666.162 130.302C657.611 130.302 669.958 129.006 672.323 128.791C675.039 128.545 683.237 128.791 680.508 128.791C677.276 128.791 671.346 129.508 668.704 127.448C668.053 126.941 669.595 127.62 669.738 127.658C672.097 128.297 674.563 127.916 676.975 128.078C684.353 128.573 671.821 128.791 669.91 128.791C669.368 128.791 673.087 128.791 673.701 128.791C675.006 128.791 681.254 127.923 682.145 128.791C683.605 130.213 678.047 129.303 676.028 129.714C673.791 130.171 675.516 130.302 676.631 130.302" stroke="#9E7647" stroke-width="4" stroke-linecap="round"/>
<path d="M481.306 77.7725C478.669 74.4514 476.526 70.3588 474.372 66.6851C471.672 62.081 468.928 55.7054 471.73 50.4775C473.547 47.0893 476.584 55.5137 476.995 56.8297C477.586 58.7212 477.859 60.7371 478.499 62.6043C479.031 64.1528 479.036 61.3602 479.068 61.0644C479.503 57.0083 480.737 52.2399 483.544 49.2456C486.418 46.1801 487.438 52.9121 487.543 54.7123C487.868 60.2597 485.783 65.6893 483.783 70.7081C483.058 72.5271 482.758 74.7259 481.966 76.3866" stroke="#EE526E" stroke-width="4" stroke-linecap="round"/>
<path d="M339.301 65.0133C339.301 61.6038 335.916 58.6481 332.586 57.9347C331.083 57.6124 331.61 61.0583 331.72 61.6945C332.345 65.3089 333.755 68.2933 335.306 71.6045C336.069 73.2349 341.749 81.5339 344.259 77.7316C345.806 75.3867 343.489 73.3714 342.766 71.2796" stroke="#E2C488" stroke-width="4" stroke-linecap="round"/>
<path d="M348.209 61.1254C348.209 57.7671 345.687 53.6436 342.333 53.1974C339.131 52.7713 342.622 63.376 343.185 64.7523C344.352 67.603 346.246 69.6181 347.794 72.192C348.543 73.4371 349.632 74.9354 351.179 74.9354C354.578 74.9354 353.191 70.1946 351.747 68.6581" stroke="#C08AFF" stroke-width="4" stroke-linecap="round"/>
<path d="M358.876 60.382C358.876 56.3164 357.537 52.3629 353.439 50.5373C349.427 48.7497 352.48 60.1844 353.021 61.3711C354.122 63.7839 355.971 70.6538 359.294 71.1237C361.706 71.4649 361.803 68.7331 361.803 67.0065" stroke="#64D7C0" stroke-width="4" stroke-linecap="round"/>
<path d="M463.502 106.071C464.8 103.201 464.698 97.5496 461.638 95.858C459.166 94.4913 458.305 105.461 458.283 106.987C458.248 109.419 457.922 118.437 461.638 118.437C462.951 118.437 465.742 114.11 464.62 113.49" stroke="#C08AFF" stroke-width="4" stroke-linecap="round"/>
<path d="M652.753 56.0479C655.571 54.5588 657.799 52.3879 657.799 49.1465C657.799 45.2138 649.79 49.5252 648.641 50.1723C646.351 51.4627 636.81 58.0431 640.791 61.2939C642.617 62.7848 648.391 59.6691 648.127 59.4054" stroke="#1234F5" stroke-width="4" stroke-linecap="round"/>
<path d="M658.196 62.2997C660.03 62.1974 664.725 59.5647 664.403 57.2989C663.784 52.9517 656.638 56.1597 654.711 57.0905C651.487 58.6482 647.396 62.6537 647.396 66.5596C647.396 70.0189 653.369 67.3004 654.873 67.3004" stroke="#64D7C0" stroke-width="4" stroke-linecap="round"/>
<path d="M672.226 90.8944C674.81 90.0758 677.758 89.3902 679.234 86.7583C681.009 83.5957 674.794 83.4183 673.062 83.4495C669.89 83.5066 659.854 86.5671 659.695 90.8025C659.556 94.5282 662.499 93.7896 665.543 93.7896" stroke="#C08AFF" stroke-width="4" stroke-linecap="round"/>
<path d="M109.082 488.865C111.256 477.72 107.153 465.379 106.903 453.975C106.465 434.032 106.124 415.352 109.688 395.582C112.992 377.251 117.038 356.722 126.762 340.581C130.42 334.509 140.488 316.515 149.407 325.437C155.293 331.326 155.946 343.521 155.946 351.484C155.946 357.319 155.946 363.155 155.946 368.99C155.946 375.565 155.99 381.52 159.216 387.465C162.155 392.881 169.651 393.385 175.019 394.552C187.639 397.297 196.58 390.9 208.017 387.223C224.426 381.946 233.282 399.456 236.596 412.3C241.362 430.776 236.462 450.359 240.107 468.997C242.146 479.42 243.872 493.476 254.881 496.74C262.042 498.862 276.731 496.603 282.854 491.591C294.68 481.911 308.579 474.744 324.268 473.661C330.874 473.205 338.781 474.464 343.159 480.142C348.302 486.811 347.647 495.341 349.396 503.039C352.226 515.497 347.832 530.368 351.575 542.352C353.813 549.515 354.507 563.717 344.249 564.098C335.326 564.428 349.824 561.917 352.181 561.917C357.227 561.917 362.272 561.917 367.318 561.917C373.254 561.917 365.575 561.945 363.867 561.917C361.519 561.878 342.582 561.917 351.697 561.917C355.753 561.917 359.81 561.917 363.867 561.917C367.701 561.917 356.197 561.917 352.363 561.917C348.245 561.917 335.894 561.917 340.011 561.917C345.642 561.917 351.273 561.917 356.904 561.917C362.819 561.917 357.673 562.656 354.784 563.552C349.908 565.066 346.877 566.691 344.491 561.917" stroke="#EE526E" stroke-width="4" stroke-linecap="round"/>
<path d="M149.688 511.261C150.743 511.05 151.261 511.333 152.22 511.74C154.31 512.628 156.507 513.306 158.717 513.846C162.193 514.694 167.066 514.823 170.427 516.058C171.868 516.349 174.591 516.969 174.911 517.435C175.232 517.9 178.601 537.217 178.601 539.855C177.318 541.235 174.729 542.628 173.244 543.79C169.262 546.907 163.324 549.954 159.653 553.42C158.837 554.19 158.091 555.565 157.12 554.672C155.468 553.153 154.217 551.404 152.743 549.716C149.845 546.395 146.821 542.966 143.687 539.855C142.203 538.384 140.986 536.733 139.53 535.245C138.835 534.535 139.691 533.272 140.026 532.607C142.83 527.025 145.738 521.553 148.697 516.058C149.255 515.02 150.926 513.161 150.926 511.98" stroke="#C08AFF" stroke-width="4" stroke-linecap="round"/>
<path d="M150.583 511.496C149.783 511.915 149.417 512.453 148.912 513.235C147.652 515.185 146.477 517.201 145.182 519.125C143.066 522.268 140.796 525.287 138.66 528.414C137.659 529.878 136.895 531.461 136.01 532.991C135.681 533.56 136.154 533.95 136.459 534.36C140.037 539.176 157.632 555.27 157.632 555.27" stroke="#1234F5" stroke-width="4" stroke-linecap="round"/>
<path d="M175.081 517.618C172.972 523.463 169.804 531.284 170.052 536.537M170.052 536.537C170.114 537.865 170.052 535.205 170.052 536.537ZM170.052 536.537C168.054 540.324 162.85 544.925 160.7 548.631C160.022 549.799 159.383 550.987 158.83 552.211C158.66 552.586 158.446 553.614 158.245 552.853" stroke="#E2C488" stroke-width="4" stroke-linecap="round"/>
<path d="M151.831 512.72C149.533 518.262 148.519 524.021 146.871 529.741C146.128 532.321 147.13 534.792 148.034 537.298C149.943 542.593 152.718 547.19 155.513 552.031C155.752 552.446 156.359 553.189 156.387 553.691C156.434 554.504 156.387 553.723 156.387 553.287" stroke="#EE526E" stroke-width="4" stroke-linecap="round"/>
<path d="M169.878 537.209C171.293 537.615 172.852 537.899 174.325 538.263C175.721 538.608 176.96 539.078 178.489 539.317C179.127 539.417 178.453 539.275 178.181 539.246C176.693 539.085 175.758 539.021 174.775 538.492" stroke="#1234F5" stroke-width="4" stroke-linecap="round"/>
<path d="M146.613 530.781C144.438 531.772 141.624 531.952 139.286 532.414C138.146 532.639 137.084 533.095 135.962 533.389C135.024 533.635 136.125 533.515 136.5 533.434" stroke="#9E7647" stroke-width="4" stroke-linecap="round"/>
<path d="M169.877 537.209C167.994 536.651 163.349 532.951 162.322 531.473C159.787 527.825 156.961 524.429 154.147 520.99C152.361 518.808 151.445 515.995 150.434 513.38C150.121 512.57 150.291 510.756 151.071 511.823" stroke="#64D7C0" stroke-width="4" stroke-linecap="round"/>
<path d="M199.784 246.526C196.804 242.441 193.287 238.817 190.477 234.578C187.58 230.207 182.39 219.81 186.56 214.783C188.352 212.622 192.58 221.018 193.155 222.113C193.47 222.711 196.126 228.527 196.169 227.086C196.295 222.806 197.118 218.498 199.215 214.654C201.358 210.727 204.735 209.146 206.38 214.105C208.853 221.561 207.484 230.425 205.208 237.742C204.82 238.991 200.99 251.202 200.99 245.363" stroke="#E2C488" stroke-width="4" stroke-linecap="round"/>
<path d="M218.185 258.772C225.208 265.743 203.026 244.949 199.508 235.73C198.278 232.507 196.611 224.998 201.793 230.141C202.966 231.306 206.351 239.115 207.72 239.115C208.32 239.115 207.797 236.619 207.787 236.486C207.597 234.036 208.014 231.521 208.78 229.188C209.867 225.877 214.973 219.273 218.317 223.995C222.961 230.55 220.293 242.024 218.914 249.24C218.311 252.391 217.589 261.98 217.589 258.772" stroke="#1234F5" stroke-width="4" stroke-linecap="round"/>
<path d="M353.5 525.374C356.245 525.374 360.177 522.173 360.076 519.231C359.893 513.895 354.825 513.905 351.093 514.074C346.853 514.266 343.056 517.752 343.056 522.235C343.056 523.762 343.594 524.267 344.775 524.971C345.322 525.297 346.616 525.374 346.537 525.374" stroke="#1234F5" stroke-width="4" stroke-linecap="round"/>
<path d="M351.957 534.831C356.409 534.831 361.266 533.118 361.013 527.828C360.816 523.694 354.566 524.455 351.957 524.533C347.958 524.652 342.283 527.047 342.113 531.856C342.001 535.032 344.501 534.419 346.838 534.419" stroke="#64D7C0" stroke-width="4" stroke-linecap="round"/>
<path d="M340.879 474.22C340.964 473.474 341.811 472.97 342.198 472.352C342.818 471.361 343.411 470.088 343.773 468.988C344.183 467.74 344.174 464.696 342.581 464.131C337.967 462.494 333.391 470.196 332.282 473.639C331.696 475.458 328.874 483.029 332.836 482.814C333.392 482.784 337.57 479.317 335.9 480.946" stroke="#E2C488" stroke-width="4" stroke-linecap="round"/>
<path d="M219.385 385.056C221.095 383.234 221.489 379.373 220.607 377.148C219.228 373.664 215.527 378.813 215.046 380.067C213.808 383.289 212.372 388.321 214.874 391.367C216.07 392.824 217.467 391.624 218.145 390.34" stroke="#1234F5" stroke-width="4" stroke-linecap="round"/>
<path d="M235.489 399.661C236.995 398.975 240.922 398.237 240.922 396.012C240.922 393.382 237.212 393.806 235.338 394.276C231.811 395.161 226.823 398.024 225.898 401.704C225.171 404.596 228.342 402.872 229.754 402.872" stroke="#C08AFF" stroke-width="4" stroke-linecap="round"/>
<path d="M118.497 351.219C117.738 350.362 117.036 349.61 116.142 348.87C115.479 348.321 113.334 346.944 112.534 347.939C111.761 348.9 113.205 350.757 113.7 351.419C115.144 353.348 116.865 354.967 118.846 356.318C119.621 356.846 124.185 359.262 124.569 357.116C124.741 356.155 124.289 353.98 123.206 353.613" stroke="#64D7C0" stroke-width="4" stroke-linecap="round"/>
<path d="M77.9569 432.009C74.6233 432.009 70.9953 429.905 67.952 428.737C62.8468 426.777 55.7924 423.084 53.7395 417.61C52.3996 414.037 52.4918 409.389 57.3394 411.813C59.0661 412.676 60.8104 413.949 62.3184 415.155C62.9145 415.632 63.7894 416.944 63.0197 415.576C61.2234 412.383 60.1088 409.014 60.9626 405.314C62.0605 400.557 65.0808 401.7 67.6248 404.683C74.0013 412.159 75.6699 422.02 77.9569 431.168" stroke="#1234F5" stroke-width="4" stroke-linecap="round"/>
<path d="M107.421 492.023C103.502 492.023 115.353 492.75 119.173 491.736C125.175 490.144 112.979 490.997 111.379 490.659C105.958 489.515 112.844 490.731 114.658 490.731C117.382 490.731 108.041 492.595 110.761 489.438" stroke="#EE526E" stroke-width="4" stroke-linecap="round"/>
<path d="M563.243 163.155C565.481 164.327 568.235 164.193 570.685 164.225C575.263 164.284 579.805 163.747 584.376 163.782C585.36 163.79 587.911 163.218 588.805 163.825C589.879 164.556 590.237 168.645 590.443 169.668C592.115 177.948 593.815 186.402 597.075 194.233C597.692 195.717 592.701 196.825 591.784 197.254C586.355 199.793 581.112 202.644 575.796 205.402C573.956 206.357 572.081 207.141 570.184 207.964C569.136 208.418 568.21 206.392 567.753 205.756C563 199.152 557.104 193.24 552.637 186.472C552.029 185.55 552.523 184.416 552.908 183.475C554.394 179.851 556.025 176.25 557.817 172.767C558.972 170.519 560.297 168.375 561.319 166.061C561.506 165.637 562.077 165.052 562.099 164.763" stroke="#E2C488" stroke-width="3.7" stroke-linecap="round"/>
<path d="M562.54 163.441C562.029 166.883 560.448 170.163 559.365 173.454C557.864 178.017 556.211 182.484 555.073 187.153C554.833 188.137 554.037 189.785 554.296 190.827C554.327 190.952 554.52 190.656 554.648 190.666C555.129 190.703 555.59 190.97 555.96 191.259C560.462 194.763 563.885 200.131 567.432 204.525C567.897 205.101 569.255 207.761 569.949 207.815" stroke="#EE526E" stroke-width="3.7" stroke-linecap="round"/>
<path d="M571.041 206.88C572.089 204.681 575.526 202.764 577.444 201.437C580.971 198.998 584.597 196.672 588.217 194.373C590.539 192.899 591.143 193.064 590.985 190.326C590.568 183.125 589.332 175.993 588.604 168.827C588.464 167.452 588.181 165.532 588.215 165.1" stroke="#64D7C0" stroke-width="3.7" stroke-linecap="round"/>
<path d="M553.646 181.761C554.448 183.93 555.537 185.966 556.398 188.086C556.549 188.458 556.057 187.358 555.938 186.975C555.573 185.809 555.644 185.122 555.851 183.969" stroke="#E2C488" stroke-width="3.7" stroke-linecap="round"/>
<path d="M592.16 192.908C590.179 192.754 599.565 195.579 597.589 195.368C596.071 195.206 592.284 194.291 591.849 192.544" stroke="#E2C488" stroke-width="3.7" stroke-linecap="round"/>
<path d="M589.956 190.699C588.702 189.234 587.388 188.123 585.832 186.983C582.16 184.292 579.369 180.854 576.55 177.319C574.039 174.17 571.558 170.998 569.065 167.834C568.666 167.327 566.367 164.115 565.718 164.065C565.358 164.037 567.316 167.523 567.366 167.607C569.621 171.372 571.962 175.059 574.765 178.444C576.755 180.848 578.884 183.073 581.161 185.204C582.385 186.351 580.85 183.871 580.669 183.525" stroke="#EE526E" stroke-width="3.7" stroke-linecap="round"/>
<path d="M564.825 164.637C564.841 163.209 563.785 166.427 563.779 166.442C562.456 169.823 560.774 173.062 559.509 176.464C559.162 177.397 556.264 184.288 557.326 185.122C558.296 185.884 558.832 187.171 559.404 188.226C561.697 192.457 563.919 196.721 566.261 200.926C567.319 202.824 568.217 204.82 569.321 206.691C569.911 207.691 569.792 207.644 570.055 206.465" stroke="#9E7647" stroke-width="3.7" stroke-linecap="round"/>
<path d="M556.99 186.774C555.583 185.56 554.304 184.917 552.625 184.208C550.953 183.502 552.058 183.674 553.226 183.765C553.794 183.809 558.597 184.04 556.168 184.013C555.635 184.007 552.646 184.795 553.799 184.149" stroke="#E2C488" stroke-width="3.7" stroke-linecap="round"/>
<path d="M590.269 191.063C590.823 193.059 597.459 194.646 597.377 195.691" stroke="#E2C488" stroke-width="3.7" stroke-linecap="round"/>
<path d="M559.973 161.543C560.096 164.49 565.945 163.019 567.411 162.914C573.049 162.511 578.698 162.262 584.327 161.742C586.025 161.585 587.719 161.603 589.415 161.799C590.298 161.9 590.237 165.382 590.334 165.982C591.627 174.018 593.54 181.882 595.46 189.77C595.722 190.844 595.513 193.499 596.315 191.874" stroke="#C08AFF" stroke-width="3.7" stroke-linecap="round"/>
<path d="M816.177 451.37C815.702 450.582 813.928 451.974 814.339 452.793C815.9 455.904 816.642 459.839 817.991 463.186C819.541 467.034 821.566 470.699 823.426 474.405C823.968 475.483 824.048 475.485 825.187 475.379C827.633 475.153 830.1 474.913 832.56 475.063C838.168 475.403 843.826 475.291 849.418 475.756C851.327 475.914 853.331 476.156 855.189 476.653C855.809 476.819 855.411 472.905 855.393 472.384C855.151 465.203 855.613 458.13 856.251 450.983C856.279 450.67 856.973 446.967 856.44 446.722C854.954 446.039 853.659 444.921 852.214 444.148C848.308 442.06 844.5 439.999 840.866 437.442C839.195 436.266 836.781 435.175 835.387 433.659C835.384 433.655 833.482 435.037 833.31 435.171C829.247 438.355 825.553 441.948 821.958 445.642C819.75 447.912 818.531 449.25 816.177 451.37Z" stroke="#64D7C0" stroke-width="3.7" stroke-linecap="round"/>
<path d="M815.183 452.37C817.555 457.009 820.106 461.575 822.819 466.025C824.136 468.184 825.358 470.249 827.114 472.085C827.482 472.47 828.715 474.05 829.43 473.739C830.955 473.077 832.655 473.317 834.278 473.458C840.381 473.987 846.827 473.86 852.818 475.203C853.909 475.448 854.912 476.747 855.046 474.965" stroke="#E2C488" stroke-width="3.7" stroke-linecap="round"/>
<path d="M834.996 433.621C835.91 437.026 838.837 440.174 840.859 442.963C842.156 444.753 843.583 446.107 845.182 447.6C846.615 448.939 849.329 450.536 850.084 452.456C850.788 454.247 850.703 456.71 850.969 458.584C851.516 462.439 852.018 466.271 852.864 470.074C853.271 471.903 853.793 473.658 854.311 475.451C854.576 476.371 854.022 475.032 853.919 474.826" stroke="#C08AFF" stroke-width="3.7" stroke-linecap="round"/>
<path d="M850.225 451.33C851.707 450.485 852.78 448.965 854.16 447.946C854.717 447.534 857.044 446.214 857.019 446.237C855.14 447.923 853.767 451.052 851.068 450.906" stroke="#E2C488" stroke-width="3.7" stroke-linecap="round"/>
<path d="M828.305 473.599C827.039 474.235 825.694 475.16 824.297 475.435C822.671 475.755 823.767 475.173 824.647 474.731C825.994 474.055 829.884 471.75 828.537 472.426C827.341 473.027 827.381 474.064 826.474 472.758" stroke="#64D7C0" stroke-width="3.7" stroke-linecap="round"/>
<path d="M848.395 451.192C842.817 453.992 836.561 453.746 830.44 454.042C826.369 454.239 822.287 455.139 818.214 455.094C816.885 455.079 816.316 455.077 816.593 453.775" stroke="#9E7647" stroke-width="3.7" stroke-linecap="round"/>
<path d="M813.497 454.623C813.272 454.737 814.198 454.211 814.278 454.153C817.442 451.859 820.234 448.961 822.983 446.204C827.094 442.08 831.36 438.231 835.607 434.292C836.452 433.508 837.321 434.711 838.29 435.194C842.551 437.316 846.869 439.621 851.006 441.977C852.515 442.836 854.004 443.693 855.529 444.518C856.13 444.843 856.881 445.76 857.533 445.899C858.526 446.11 857.035 450.322 856.978 450.755C856.123 457.23 855.425 463.697 855.328 470.226C855.306 471.673 855.457 473.016 855.663 474.44C855.764 475.145 855.868 476.038 855.187 475.246" stroke="#EE526E" stroke-width="3.7" stroke-linecap="round"/>
<path d="M805.502 51.4153C805.715 51.0799 806.613 51.428 806.931 51.4661C809.876 51.8185 812.886 51.442 815.836 51.3006C819.783 51.1113 823.727 50.8252 827.682 50.8987C828.246 50.9092 831.672 50.5703 832.05 51.138C832.462 51.7562 832.523 53.016 832.757 53.7196C833.953 57.3131 834.624 61.0471 835.695 64.6763C836.373 66.9768 837.038 69.2746 837.803 71.5484C838.104 72.4443 839.192 74.1402 837.729 73.1383" stroke="#E2C488" stroke-width="3.24103" stroke-linecap="round"/>
<path d="M805.912 51.8275C803.041 58.1479 800.3 64.5354 798.101 71.1223C797.868 71.8207 797.201 73.0088 797.278 73.7717C797.299 73.9829 798.395 74.7408 798.539 74.8779C799.918 76.1942 801.536 77.1934 803.046 78.3472C806.255 80.7989 809.172 83.6212 812.249 86.2318C815.276 88.7993 818.868 90.3821 821.932 92.8145C822.228 93.0491 822.27 92.5464 822.48 92.2208C823.776 90.2166 825.144 88.3439 826.731 86.5574C829.923 82.965 833.587 79.8542 836.782 76.2957C837.212 75.8168 839.058 74.2554 838.716 73.4684C837.569 70.8359 836.627 68.1448 835.635 65.4493C834.453 62.2367 833.406 59.1179 832.55 55.7991C832.196 54.4242 831.451 53.0579 831.542 51.6093C831.562 51.2981 831.89 49.5626 831.493 49.43C830.9 49.2322 829.879 49.6926 829.291 49.7763C827.333 50.0552 825.341 50.05 823.374 50.2537C819.273 50.6784 815.155 50.6493 811.039 50.5229C809.983 50.4905 807.624 49.9833 806.918 50.9141C803.301 55.6791 800.638 61.2997 798.327 66.7959C797.589 68.5501 796.852 70.3168 796.15 72.0855C795.675 73.2834 796.03 72.5811 796.447 71.9714" stroke="#C08AFF" stroke-width="3.24103" stroke-linecap="round"/>
<path d="M795.872 72.0519C805.699 78.5765 813.44 87.8651 824.235 93.0332" stroke="#64D7C0" stroke-width="3.24103" stroke-linecap="round"/>
<path d="M831.817 50.6043C831.627 50.2874 831.624 51.895 831.597 52.0845C831.192 55.0008 830.846 57.8263 830.826 60.7828C830.797 65.0948 831.205 69.4526 831.049 73.7578C831.006 74.9562 829.132 76.9601 828.576 77.928C826.746 81.1156 825.139 84.4091 823.542 87.7166C822.73 89.398 821.88 91.0539 821.288 92.828C820.667 94.688 820.946 90.8701 820.946 90.5664" stroke="#C08AFF" stroke-width="3.24103" stroke-linecap="round"/>
<path d="M807.723 50.5115C805.789 56.305 803.942 62.4193 802.969 68.4506C802.809 69.4399 802.389 70.6075 802.346 71.5936C802.324 72.1 804.377 73.9996 804.666 74.3631C809.678 80.6796 826.688 97.8321 820.535 92.6211" stroke="#E2C488" stroke-width="3.24103" stroke-linecap="round"/>
<path d="M830.328 73.957C830.136 74.9599 838.334 73.2388 839.283 73.5037C840.407 73.8174 837.023 74.1078 835.87 74.2836C835.454 74.3469 834.204 74.7207 834.028 74.3696" stroke="#EE526E" stroke-width="3.24103" stroke-linecap="round"/>
<path d="M802.205 71.1504C800.396 71.4082 798.65 71.846 796.914 72.4001C795.118 72.9734 798.813 72.3561 799.08 72.3005" stroke="#EE526E" stroke-width="3.24103" stroke-linecap="round"/>
<path d="M830.164 73.6289C830.489 72.6541 829.508 71.7437 828.963 71.0197C826.759 68.0886 824.48 65.4252 821.616 63.0993C818.268 60.3808 814.573 57.8373 811.444 54.8763C809.999 53.5081 808.035 52.151 806.9 50.5115" stroke="#64D7C0" stroke-width="3.24103" stroke-linecap="round"/>
<path d="M84.8809 123.611C92.7608 127.922 98.4047 125.339 104.895 119.574C112.926 112.44 116.576 103.52 114.862 92.6904C112.003 74.6237 89.5428 68.253 76.7969 80.4596C64.5813 92.1583 67.4587 112.181 79.7793 122.157C88.2648 129.029 104.655 124.805 109.604 114.892C114.402 105.28 115.861 93.6162 111.016 83.6485C105.159 71.5974 95.2785 71.3751 84.5277 77.1092C74.0313 82.7076 63.6453 94.7359 66.8293 108.029C69.1966 117.913 81.7339 123.556 90.5318 125.064" stroke="#EE526E" stroke-width="5.88381" stroke-linecap="round"/>
<path d="M123.106 86.8462C123.106 79.5944 117.468 72.9504 111.807 68.7647C102.804 62.1089 87.2334 58.7885 77.0161 64.7055C72.5407 67.2974 68.5912 71.6855 65.6104 75.7554C61.764 81.0074 58.9155 86.5865 58.4952 93.0784C58.2967 96.1437 57.7305 105.334 57.7305 102.263C57.7305 98.9293 57.7123 95.7015 58.304 92.4019C61.5691 74.1933 78.9523 55.4529 99.424 61.5689C106.672 63.7343 111.69 67.8085 115.842 73.9308C117.577 76.489 119.41 79.1506 120.43 82.0491C120.741 82.9331 121.157 85.7209 121.959 86.1082" stroke="#1234F5" stroke-width="5.88381" stroke-linecap="round"/>
<path d="M105.293 64.9643C105.455 63.2347 106.537 61.5826 107.241 60.0654C108.951 56.3802 110.826 52.7845 112.784 49.2548C114.33 46.4692 119.013 38.1576 117.639 41.0514C115.043 46.5173 111.496 51.347 108.589 56.5948C107.46 58.6333 106.413 60.7678 105.473 62.9217C104.908 64.2159 105.215 63.0554 105.293 62.2741" stroke="#64D7C0" stroke-width="5.88381" stroke-linecap="round"/>
<path d="M85.3088 60.6704C85.3088 53.7061 84.6354 46.7439 83.6506 39.8506C83.4172 38.2164 82.6657 32.0415 83.8349 36.7184" stroke="#C08AFF" stroke-width="5.88381" stroke-linecap="round"/>
<path d="M64.671 73.5672C64.671 72.5674 64.0058 71.6019 63.4837 70.7831C62.1785 68.7363 60.7534 66.8311 59.5122 64.7234C57.4597 61.2382 54.8886 57.9132 53.2478 54.2214C52.0374 51.498 55.5815 59.7136 56.9737 62.3487C58.2281 64.7231 60.5138 69.4446 62.8286 70.9878" stroke="#E2C488" stroke-width="5.88381" stroke-linecap="round"/>
<path d="M94.9 126.998C95.1038 133.928 95.0055 141.298 96.1897 148.166C96.4002 149.387 96.3739 150.596 96.3739 151.831C96.3739 153.604 96.1349 148.29 95.9236 146.528C95.2047 140.538 94.8074 134.498 94.1425 128.513C93.8694 126.056 94.1148 129.751 94.163 130.376C94.4935 134.673 94.721 139.102 96.0054 143.212" stroke="#9E7647" stroke-width="5.88381" stroke-linecap="round"/>
<path d="M608.824 569.584C622.533 570.459 636.348 568.097 650.044 568.746C653.67 568.918 647.54 568.675 646.886 568.699C641.19 568.904 635.222 569.11 629.538 568.748C619.016 568.076 650.603 567.681 661.146 567.528C665.19 567.469 669.251 567.891 673.286 568.149C677.543 568.421 672.24 568.035 670.901 568.074C665.309 568.236 659.574 569.656 654.084 570.662C648.974 571.598 655.242 571.851 657.018 571.813C663.614 571.671 670.233 570.941 676.829 570.611C681.602 570.372 676.817 571.066 674.93 571.376C674.402 571.463 668.338 572.74 668.733 573.062C670.117 574.19 673.534 573.386 675.06 572.965C676.727 572.504 670.414 571.453 669.764 571.393C663.456 570.812 667.065 569.667 671.054 568.7C672.136 568.438 687.817 565.559 680.236 563.736C679.639 563.592 674.716 562.397 675.641 562.055C679.772 560.526 685.222 560.648 689.555 560.862C694.531 561.107 685.054 561.867 684.323 561.915C678.664 562.289 673.043 562.583 667.382 562.221C665.04 562.072 672.065 562.52 674.407 562.67C676.041 562.774 677.821 562.709 679.433 563.029C679.757 563.094 673.182 564.653 672.422 564.779C668.042 565.506 663.654 566.336 659.256 566.945C658.288 567.079 655.635 566.797 654.825 567.51C653.72 568.483 657.77 567.394 659.236 567.252C663.028 566.884 666.831 566.57 670.63 566.283C674.199 566.014 677.619 566.072 671.417 566.025C664.716 565.975 656.15 567.973 649.616 565.79C648.026 565.258 650.607 564.545 650.856 564.481C654.583 563.527 658.487 563.171 662.299 562.745C663.175 562.647 673.526 561.984 667.971 562.644C661.503 563.414 654.783 564.126 648.279 564.394C643.795 564.578 649.284 564.535 650.769 564.63" stroke="#EE526E" stroke-width="4" stroke-linecap="round"/>
<path d="M637.345 567.243C644.515 567.469 651.595 565.81 658.736 565.448C661.34 565.316 672.959 566.83 664.317 566.19C658.756 565.778 653.321 564.614 647.932 563.216C646.142 562.752 656.7 561.201 658.013 561.085C662.917 560.65 667.758 560.859 672.654 561.172C677.131 561.457 663.681 561.381 659.207 561.701C658.395 561.759 649.229 561.757 652.56 561.97C658.343 562.339 664.132 562.654 669.912 563.078C677.736 563.652 669.763 566.541 666.378 567.709C659.334 570.14 652.086 570.787 644.944 572.585C640.264 573.763 664.239 573.123 659.422 572.815C654.908 572.527 650.388 572.932 645.866 572.644C638.962 572.203 632.274 570.388 625.378 569.948C624.221 569.874 618.885 570.227 619.114 570.242C620.727 570.345 622.339 570.448 623.951 570.551" stroke="#64D7C0" stroke-width="4" stroke-linecap="round"/>
<path d="M535.114 438.205C532.142 435.06 530.244 430.797 528.137 427.079C525.477 422.386 521.928 415.866 523.13 410.272C524.302 404.822 528.509 408.787 530.509 411.403C531.953 413.29 533.171 415.357 534.127 417.533C534.535 418.461 534.917 419.827 534.831 418.013C534.602 413.215 536.821 409.003 540.314 405.84C541.371 404.883 542.66 403.876 543.868 405.154C545.66 407.051 544.706 410.714 544.365 412.955C543.298 419.977 540.66 426.54 537.552 432.895C536.628 434.784 534.535 436.937 534.474 439.109" stroke="#E2C488" stroke-width="4" stroke-linecap="round"/>
<path d="M518.431 447.676C517.161 447.178 516.796 446.261 515.939 445.215C513.744 442.536 511.37 440.012 509.648 436.977C507.908 433.91 507.363 430.353 507.68 426.864C507.842 425.084 508.284 422.324 509.655 421.029C512.493 418.347 517.398 429.993 518.201 431.618C518.453 432.128 519.966 435.63 519.984 434.998C520.053 432.566 519.601 430.305 520.27 427.886C520.774 426.061 523.969 416.443 526.97 417.368C530.077 418.327 529.898 426.111 529.66 428.561C528.885 436.514 522.937 443.047 519.291 449.852" stroke="#64D7C0" stroke-width="4" stroke-linecap="round"/>
<path d="M603.3 526.548C613.638 532.446 627.803 530.171 634.547 521.177C641.409 512.024 644.971 502.069 642.275 490.723C641.288 486.567 638.241 482.844 635.544 479.631C631.693 475.045 625.848 470.722 620.176 468.746C611.04 465.562 600.179 470.638 594.534 477.966C583.633 492.115 586.71 517.484 602.59 526.721C607.51 529.583 613.839 530.907 619.493 531.067C625.951 531.249 631.522 527.534 635.37 522.528C639.187 517.562 641.328 510.721 642.587 504.641C643.706 499.241 643.417 494.726 641.782 489.478C637.812 476.731 626.564 468.429 612.912 470.24C605.501 471.223 598.311 476.767 593.894 482.597C589.358 488.585 586.672 497.692 587.64 505.181C588.61 512.675 591.058 518.825 597.486 523.139C600.345 525.058 603.446 526.632 606.501 528.219C608.996 529.515 611.876 531.347 614.256 530.242" stroke="#C08AFF" stroke-width="4" stroke-linecap="round"/>
<path d="M595.18 484.276C597.223 479.586 602.829 473.191 608.431 471.742C614.033 470.294 616.743 470.622 622.247 472.627C627.752 474.632 632.901 481.429 637.716 486.965C647.899 498.673 642.625 515.078 631.811 524.436C625.06 530.278 616.366 533.254 607.566 530.197C599.568 527.418 593.976 521.333 592.034 513.305C589.752 503.875 591.327 493.115 595.18 484.276Z" stroke="#1234F5" stroke-width="4" stroke-linecap="round"/>
<path d="M602.938 508.725C600.775 503.559 600.027 497.407 601.512 491.901C601.956 490.254 603.111 487.738 604.372 490.311C605.871 493.37 605.418 497.794 604.928 501.069C604.615 503.157 602.478 512.456 600.422 505.915C599.436 502.78 599.73 498.829 600.691 495.724C601.176 494.158 601.743 491.81 603.113 490.897" stroke="#EE526E" stroke-width="4" stroke-linecap="round"/>
<path d="M613.275 506.612C612.602 506.424 612.887 503.78 612.826 503.221C612.476 500.01 612.072 496.516 612.987 493.36C613.205 492.61 614.207 488.985 615.579 489.783C617.553 490.931 617.548 494.036 617.778 495.981C618.241 499.9 618.55 505.644 616.182 509.102C614.891 510.987 612.456 505.625 612.274 504.836C611.342 500.798 611.313 494.602 614.387 491.341C615.657 489.994 617.209 490.646 617.889 492.062C619.261 494.921 618.625 497.602 618.327 500.657C618.16 502.365 617.455 503.972 617.232 505.675C617.06 506.986 617.418 508.823 616.686 509.855" stroke="#1234F5" stroke-width="4" stroke-linecap="round"/>
<path d="M609.319 532.185C609.533 524.597 608.191 547.33 607.977 554.918C607.875 558.534 607.495 562.249 607.941 565.851C608.155 567.581 607.927 564.132 607.9 563.851C607.3 557.567 606.531 551.094 606.883 544.775C607.099 540.909 608 529.332 607.89 533.203" stroke="#C08AFF" stroke-width="4" stroke-linecap="round"/>
<path d="M621.667 532.61C621.449 540.328 621.884 548.031 621.667 555.744C621.613 557.64 621.839 559.487 621.834 561.371C621.832 562.225 621.888 559.444 621.899 559.061" stroke="#64D7C0" stroke-width="4" stroke-linecap="round"/>
<path d="M619.584 530.822C618.763 534.759 619.246 538.999 619.319 542.993C619.412 548.035 619.927 553.057 620.155 558.092C620.275 560.757 620.755 563.434 620.718 566.097C620.707 566.889 620.649 568.514 620.698 566.801C620.895 559.827 620.672 552.707 620.504 545.728C620.382 540.675 620.274 535.834 621.357 530.872" stroke="#9E7647" stroke-width="4" stroke-linecap="round"/>
<path d="M607.764 530.913C607.188 529.634 607.747 532.741 607.772 533.132C608.217 540.04 608.549 547.023 608.21 553.947C607.993 558.398 607.712 562.802 608.012 567.252C608.062 568 608.257 569.841 608.307 568.058" stroke="#C08AFF" stroke-width="4" stroke-linecap="round"/>
<path d="M578.402 507.785C576.809 502.754 577.296 497.052 578.184 491.994C579.593 483.963 582.227 477.027 587.477 470.285C595.531 459.943 610.532 457.587 623.637 460.568C628.965 461.78 635.367 463.983 639.094 467.722C640.917 469.552 642.311 471.604 643.491 473.793C645.181 476.932 647.385 479.814 648.815 483.066C651.228 488.551 652.424 494.273 652.258 500.142C652.144 504.2 652.648 498.805 652.52 497.488C651.635 488.378 649.81 480.606 643.681 472.954C637.282 464.967 625.8 458.674 614.533 458.64C600.023 458.597 588.468 468.468 582.732 479.494C581.303 482.24 580.706 485.22 580.264 488.198C579.755 491.62 578.927 495.058 578.685 498.505C578.602 499.691 577.986 507.131 579.177 506.816" stroke="#64D7C0" stroke-width="4" stroke-linecap="round"/>
<path d="M579.002 502.982C579.176 496.832 580.543 490.976 582.435 485.074C584.484 478.682 586.229 473.224 590.687 467.868C597.366 459.845 609.589 457.255 619.99 457.549C631.282 457.867 641.229 462.862 646.817 472.268C649.924 477.496 651.281 483.827 652.201 489.67C652.637 492.432 653.263 495.323 653.407 498.111C653.485 499.645 654.418 501.646 652.652 499.62" stroke="#C08AFF" stroke-width="4" stroke-linecap="round"/>
<path d="M621.194 457.335C621.249 455.417 621.93 453.537 622.274 451.654C623.088 447.198 624.056 442.678 624.493 438.171C624.783 435.172 625.539 432.345 626.407 429.462C626.893 427.844 626.971 428.351 626.57 429.711C624.482 436.793 623.55 444.177 622.128 451.405C621.796 453.092 621.264 454.861 621.216 456.585C621.193 457.38 621.23 456.084 621.236 455.868" stroke="#C08AFF" stroke-width="4" stroke-linecap="round"/>
<path d="M620.34 457.055C620.614 457.303 621.319 452.79 621.376 452.163C621.831 447.171 622.838 442.254 623.591 437.301C624.07 434.147 625.055 431.152 625.631 428.056C625.887 426.679 625.634 428.53 625.619 429.049" stroke="#C08AFF" stroke-width="4" stroke-linecap="round"/>
<path d="M639.291 464.272C639.949 463.833 640.446 463.281 640.962 462.681C642.381 461.03 643.855 459.43 645.278 457.781C648.785 453.715 651.918 449.273 655.575 445.347C655.759 445.15 657.413 443.009 657.721 443.476C657.973 443.858 658.569 444.115 658.884 444.506C659.869 445.727 660.933 446.87 661.846 448.151C663.743 450.813 665.667 453.62 667.905 456.007C669.117 457.3 670.564 458.367 671.776 459.66C672.285 460.203 672.677 460.794 673.078 461.415C673.324 461.797 674.154 462.857 673.383 461.869" stroke="#C08AFF" stroke-width="4" stroke-linecap="round"/>
<path d="M638.294 464.536C640.286 462.666 641.924 460.529 643.566 458.355C646.636 454.291 649.635 450.148 652.987 446.304C654.386 444.7 655.938 443.286 657.39 441.752C658.103 440.999 657.906 441.311 658.276 442.031C659.401 444.225 660.812 446.26 662.17 448.313C663.87 450.884 665.532 453.489 667.343 455.984C669.524 458.99 671.255 462.373 673.225 465.522C673.5 465.962 675.265 468.68 674.213 466.886C672.766 464.419 671.712 461.744 669.945 459.451C667.29 456.008 664.293 452.833 661.626 449.397C660.258 447.634 659.154 445.711 657.851 443.91C657.54 443.479 656.663 442.674 657.083 442.279" stroke="#EE526E" stroke-width="4" stroke-linecap="round"/>
<path d="M603.726 491.656C602.551 491.703 602.291 492.964 602.03 494.144C601.383 497.062 601.07 500.075 601.199 503.081C601.266 504.626 601.465 506.72 602.585 507.749C603.479 508.57 604.164 508.383 604.581 507.139C605.883 503.254 605.955 498.734 605.683 494.659C605.626 493.806 605.189 489.094 603.742 491.086" stroke="#E2C488" stroke-width="4" stroke-linecap="round"/>
<path d="M609.174 468.119C613.14 467.107 617.779 467.252 621.353 469.475C628.761 474.083 631.316 477.29 633.305 479.674C634.493 481.098 635.915 483.016 636.917 484.568C637.622 485.659 638.596 487.316 639.184 488.477C640.648 491.367 640.766 494.712 641.277 497.922C641.81 501.277 641.193 504.812 640.218 508.039C639.034 511.953 637.165 515.603 634.959 519.033C630.942 525.28 624.269 529.363 616.81 530.202C612.25 530.715 607.914 529.34 603.808 527.473C599.739 525.622 596.164 522.192 593.681 518.519C588.089 510.245 586.196 498.697 588.887 489.093C591.619 479.338 599.109 470.689 609.174 468.119Z" stroke="#E2C488" stroke-width="4" stroke-linecap="round"/>
<defs>
<linearGradient id="paint0_linear_232_278" x1="1087.5" y1="648.5" x2="96.1396" y2="-78.7632" gradientUnits="userSpaceOnUse">
<stop offset="0.107256" stop-color="#0E1927"/>
<stop offset="0.945518" stop-color="#070A13"/>
</linearGradient>
</defs>
</svg>
