<svg width="39" height="62" viewBox="0 0 39 62" fill="none" xmlns="http://www.w3.org/2000/svg">
<path d="M17.8884 45.9644C21.8169 48.1138 24.6306 46.8262 27.866 43.952C31.8698 40.3952 33.6896 35.9484 32.8352 30.5495C31.4098 21.5426 20.2126 18.3666 13.8583 24.452C7.76836 30.2842 9.20285 40.2661 15.3451 45.2399C19.5755 48.6655 27.7465 46.5596 30.2136 41.6176C32.6059 36.8257 33.3334 31.011 30.9179 26.0418C27.9976 20.0339 23.0721 19.923 17.7124 22.7817C12.4795 25.5727 7.30172 31.5693 8.88909 38.1966C10.0692 43.1237 16.3196 45.9369 20.7056 46.6888" stroke="#EE526E" stroke-width="2.9333" stroke-linecap="round"/>
<path d="M36.9532 27.636C36.9532 24.0207 34.1426 20.7084 31.32 18.6217C26.8318 15.3035 19.0693 13.6482 13.9756 16.5981C11.7445 17.8902 9.77548 20.0778 8.28948 22.1068C6.37186 24.7251 4.95182 27.5065 4.74225 30.743C4.64329 32.2711 4.36105 36.8528 4.36105 35.3217C4.36105 33.6599 4.35198 32.0507 4.64695 30.4057C6.27472 21.328 14.9409 11.9853 25.1468 15.0343C28.7601 16.1138 31.262 18.145 33.3319 21.1972C34.1967 22.4726 35.1106 23.7995 35.619 25.2444C35.7741 25.6852 35.9813 27.075 36.3814 27.2681" stroke="#1234F5" stroke-width="2.9333" stroke-linecap="round"/>
<path d="M28.067 16.727C28.1475 15.8647 28.687 15.0411 29.038 14.2847C29.8904 12.4475 30.8254 10.6549 31.8016 8.89523C32.572 7.50649 34.9066 3.36285 34.2216 4.80552C32.9276 7.53049 31.1593 9.93823 29.7102 12.5545C29.1473 13.5707 28.6254 14.6349 28.1566 15.7087C27.8749 16.3539 28.0279 15.7753 28.067 15.3858" stroke="#64D7C0" stroke-width="2.9333" stroke-linecap="round"/>
<path d="M18.1062 14.5863C18.1062 11.1144 17.7704 7.64348 17.2795 4.20687C17.1631 3.39218 16.7884 0.313779 17.3713 2.64537" stroke="#C08AFF" stroke-width="2.9333" stroke-linecap="round"/>
<path d="M7.81838 21.0159C7.81838 20.5175 7.48675 20.0361 7.22644 19.6279C6.57576 18.6075 5.86527 17.6577 5.24649 16.6069C4.22327 14.8694 2.94148 13.2118 2.12347 11.3713C1.52005 10.0136 3.28693 14.1094 3.98095 15.4231C4.60633 16.6068 5.74584 18.9606 6.89985 19.73" stroke="#E2C488" stroke-width="2.9333" stroke-linecap="round"/>
<path d="M22.8828 47.6533C22.9844 51.1078 22.9354 54.7823 23.5257 58.2063C23.6307 58.8151 23.6176 59.4178 23.6176 60.0331C23.6176 60.9174 23.4984 58.2678 23.3931 57.3898C23.0347 54.4032 22.8366 51.3919 22.5051 48.4086C22.369 47.1834 22.4914 49.0254 22.5154 49.3373C22.6801 51.4793 22.7936 53.6874 23.4339 55.7364" stroke="#9E7647" stroke-width="2.9333" stroke-linecap="round"/>
</svg>
