<svg width="297" height="228" viewBox="0 0 297 228" fill="none" xmlns="http://www.w3.org/2000/svg">
<path d="M53.8745 155.42C55.885 145.111 52.09 133.696 51.8583 123.147C51.453 104.701 51.1383 87.4226 54.4345 69.1358C57.4907 52.1807 61.2329 33.1916 70.2278 18.2617C73.6113 12.6458 82.9241 -3.99838 91.1735 4.25456C96.6175 9.70091 97.222 20.9813 97.222 28.3469C97.222 33.7443 97.222 39.1418 97.222 44.5392C97.222 50.6212 97.2624 56.1291 100.246 61.6279C102.965 66.6379 109.898 67.1035 114.863 68.1833C126.537 70.7221 134.807 64.8057 145.386 61.4038C160.564 56.523 168.756 72.7197 171.82 84.5997C176.229 101.69 171.697 119.803 175.068 137.043C176.954 146.683 178.55 159.685 188.734 162.704C195.357 164.667 208.944 162.577 214.608 157.941C225.547 148.987 238.403 142.358 252.915 141.357C259.025 140.935 266.338 142.1 270.388 147.352C275.145 153.52 274.539 161.41 276.157 168.531C278.774 180.054 274.71 193.809 278.173 204.893C280.243 211.519 280.884 224.656 271.396 225.008C263.143 225.313 276.553 222.991 278.733 222.991C283.4 222.991 288.067 222.991 292.734 222.991C298.225 222.991 291.122 223.017 289.542 222.991C287.371 222.955 269.855 222.991 278.285 222.991C282.037 222.991 285.79 222.991 289.542 222.991C293.089 222.991 282.448 222.991 278.901 222.991C275.093 222.991 263.668 222.991 267.476 222.991C272.684 222.991 277.893 222.991 283.101 222.991C288.573 222.991 283.813 223.674 281.141 224.503C276.631 225.904 273.827 227.406 271.62 222.991" stroke="#EE526E" stroke-width="3.49888" stroke-linecap="round"/>
<path d="M91.4329 176.135C92.4091 175.94 92.8885 176.202 93.7754 176.579C95.708 177.4 97.7404 178.027 99.7845 178.526C103 179.311 107.507 179.43 110.616 180.572C111.949 180.842 114.468 181.415 114.764 181.846C115.06 182.276 118.177 200.144 118.177 202.584C116.991 203.86 114.595 205.149 113.222 206.224C109.539 209.107 104.046 211.925 100.65 215.131C99.8959 215.843 99.2058 217.115 98.3077 216.289C96.7792 214.884 95.6224 213.267 94.2592 211.705C91.5785 208.633 88.7818 205.461 85.8822 202.584C84.5103 201.223 83.3842 199.696 82.0374 198.32C81.3949 197.663 82.1864 196.495 82.4957 195.879C85.09 190.717 87.7799 185.655 90.5163 180.572C91.0329 179.612 92.5787 177.893 92.5787 176.801" stroke="#C08AFF" stroke-width="2.62416" stroke-linecap="round"/>
<path d="M92.2614 176.352C91.5213 176.74 91.1828 177.237 90.7156 177.961C89.5501 179.765 88.4634 181.629 87.2656 183.409C85.3083 186.316 83.2092 189.108 81.2329 192.001C80.3074 193.356 79.6004 194.819 78.7821 196.235C78.4778 196.761 78.9148 197.122 79.1968 197.501C82.5072 201.955 98.782 216.842 98.782 216.842" stroke="#1234F5" stroke-width="2.62416" stroke-linecap="round"/>
<path d="M114.922 182.015C112.971 187.421 110.041 194.656 110.269 199.514M110.269 199.514C110.327 200.743 110.269 198.283 110.269 199.514ZM110.269 199.514C108.421 203.018 103.608 207.274 101.619 210.702C100.993 211.782 100.401 212.88 99.8894 214.012C99.7324 214.36 99.5343 215.311 99.3488 214.607" stroke="#E2C488" stroke-width="2.62416" stroke-linecap="round"/>
<path d="M93.4159 177.485C91.2901 182.611 90.3527 187.938 88.8287 193.228C88.1412 195.615 89.0679 197.901 89.9037 200.219C91.6696 205.116 94.2368 209.368 96.8217 213.846C97.0432 214.23 97.6041 214.917 97.6306 215.381C97.6734 216.133 97.6306 215.411 97.6306 215.008" stroke="#EE526E" stroke-width="2.62416" stroke-linecap="round"/>
<path d="M110.108 200.136C111.417 200.512 112.859 200.774 114.222 201.111C115.513 201.43 116.659 201.865 118.073 202.086C118.664 202.178 118.04 202.047 117.789 202.02C116.412 201.872 115.548 201.813 114.638 201.323" stroke="#1234F5" stroke-width="2.62416" stroke-linecap="round"/>
<path d="M88.5889 194.19C86.5771 195.108 83.9739 195.273 81.8117 195.701C80.7573 195.909 79.7746 196.331 78.7371 196.603C77.8694 196.83 78.8879 196.72 79.2351 196.645" stroke="#9E7647" stroke-width="2.62416" stroke-linecap="round"/>
<path d="M110.108 200.136C108.365 199.62 104.069 196.198 103.119 194.831C100.774 191.456 98.1607 188.315 95.5572 185.134C93.9056 183.116 93.058 180.514 92.1233 178.096C91.8336 177.346 91.9913 175.668 92.7126 176.655" stroke="#64D7C0" stroke-width="2.62416" stroke-linecap="round"/>
<path d="M279.953 189.19C282.492 189.19 286.128 186.229 286.035 183.507C285.866 178.572 281.179 178.581 277.726 178.737C273.804 178.915 270.292 182.14 270.292 186.286C270.292 187.698 270.79 188.165 271.882 188.816C272.389 189.118 273.585 189.19 273.512 189.19" stroke="#1234F5" stroke-width="3.49888" stroke-linecap="round"/>
<path d="M278.526 197.937C282.643 197.937 287.136 196.352 286.903 191.46C286.72 187.636 280.939 188.339 278.526 188.411C274.826 188.522 269.578 190.737 269.42 195.185C269.316 198.123 271.629 197.556 273.791 197.556" stroke="#64D7C0" stroke-width="3.49888" stroke-linecap="round"/>
<path d="M268.279 141.874C268.357 141.183 269.141 140.717 269.499 140.145C270.073 139.23 270.621 138.052 270.956 137.035C271.335 135.88 271.326 133.064 269.853 132.541C265.585 131.027 261.353 138.152 260.327 141.336C259.785 143.019 257.175 150.022 260.839 149.823C261.354 149.795 265.218 146.588 263.673 148.095" stroke="#E2C488" stroke-width="3.49888" stroke-linecap="round"/>
<path d="M155.901 59.4001C157.483 57.7149 157.847 54.1432 157.032 52.0849C155.756 48.863 152.333 53.625 151.888 54.7848C150.743 57.7656 149.415 62.4201 151.728 65.2372C152.835 66.5853 154.127 65.4752 154.754 64.287" stroke="#1234F5" stroke-width="3.49888" stroke-linecap="round"/>
<path d="M170.797 72.9089C172.19 72.2747 175.822 71.592 175.822 69.5335C175.822 67.1015 172.391 67.4935 170.657 67.9283C167.394 68.7464 162.781 71.3948 161.925 74.7991C161.252 77.4739 164.186 75.8793 165.492 75.8793" stroke="#C08AFF" stroke-width="3.49888" stroke-linecap="round"/>
<path d="M62.5824 28.1021C61.8804 27.3092 61.2313 26.6138 60.4044 25.9288C59.7911 25.4208 57.8071 24.1478 57.0668 25.0677C56.3517 25.9563 57.6877 27.6747 58.1457 28.2866C59.4809 30.0706 61.0734 31.5685 62.9051 32.8177C63.622 33.3067 67.8437 35.5416 68.1989 33.5558C68.3578 32.667 67.9399 30.6558 66.9384 30.3164" stroke="#64D7C0" stroke-width="3.49888" stroke-linecap="round"/>
<path d="M25.0844 102.83C22.0009 102.83 18.6451 100.884 15.8302 99.8031C11.108 97.9902 4.58293 94.5749 2.68401 89.5111C1.44468 86.2062 1.52997 81.9069 6.01379 84.1488C7.61093 84.9474 9.22437 86.1249 10.6193 87.2408C11.1706 87.6819 11.9798 88.8956 11.2679 87.63C9.60635 84.6761 8.57545 81.5602 9.3652 78.1379C10.3807 73.7376 13.1744 74.7954 15.5275 77.5541C21.4255 84.4691 22.969 93.5903 25.0844 102.052" stroke="#1234F5" stroke-width="3.49888" stroke-linecap="round"/>
<path d="M52.3374 158.341C48.7129 158.341 59.675 159.013 63.2084 158.076C68.7593 156.603 57.4785 157.392 55.9992 157.079C50.9843 156.021 57.3534 157.146 59.0316 157.146C61.5517 157.146 52.9117 158.87 55.427 155.95" stroke="#EE526E" stroke-width="2.62416" stroke-linecap="round"/>
</svg>
