<svg width="351" height="210" viewBox="0 0 351 210" fill="none" xmlns="http://www.w3.org/2000/svg">
<path d="M319.637 52.869C318.045 53.0604 322.866 53.1173 324.447 52.8505C328.3 52.1999 332.297 51.8439 336.09 50.8996C336.384 50.8263 338.022 50.2483 338.036 50.7638C338.046 51.1308 338.115 51.4809 338.287 51.8116C339.636 54.4067 341.382 56.9087 343.104 59.2629C344.794 61.5722 346.705 63.6925 348.209 66.1319C348.902 67.2556 346.766 67.8591 346.018 68.4409C342.134 71.4654 338.367 74.52 335.281 78.3701C334.719 79.0707 332.392 82.9803 331.432 83.1754C329.466 81.428 327.016 77.6648 325.137 75.8261C322.326 73.0757 319.943 69.79 316.58 67.6602C315.877 67.2148 316.658 65.2812 316.823 64.7307C317.629 62.0556 318.077 59.3883 318.646 56.6625C318.96 55.1609 319.686 52.2439 319.742 51.5164" stroke="#64D7C0" stroke-width="2.50428" stroke-linecap="round"/>
<path d="M316.142 52.325C322.845 49.8557 330.475 51.9547 337.223 49.9449C337.743 49.7901 339.501 49.1518 339.804 49.8132C340.864 52.1293 341.51 54.5588 342.734 56.8454C344.087 59.3726 344.806 62.2345 346.189 64.7048C346.45 65.1704 346.664 66.0977 347.022 66.4329C348 67.3482 346.152 68.3259 345.568 68.7993C341.948 71.7301 338.794 74.5764 335.784 78.1374C334.809 79.2905 332.302 81.381 331.991 82.9526C331.818 83.8335 330.699 82.7499 330.394 82.4956C327.838 80.3625 325.502 78.0838 323.084 75.7876C320.871 73.6849 316.38 69.4169 314.664 66.8435C314.664 66.8435 314.115 66.8748 314.926 64.4858C315.281 63.4378 316.676 57.5581 317.491 54.2293C317.659 53.5419 317.859 50.2284 318.703 50.8915" stroke="#E2C488" stroke-width="2.50428" stroke-linecap="round"/>
<path d="M338.286 51.056C338.49 55.4307 339.052 59.6665 340.405 63.8462C341.023 65.7569 341.376 66.5835 340.434 68.324C337.828 73.1395 334.814 77.7236 332.292 82.5831C331.957 83.2304 331.239 85.1001 331.063 84.3925C330.946 83.9236 331.397 82.8705 331.493 82.3696" stroke="#1234F5" stroke-width="2.50428" stroke-linecap="round"/>
<path d="M320.469 52.662C320.908 56.1618 319.976 59.7255 320.054 63.2438C320.081 64.4761 319.573 66.1557 320.318 67.2259C322.545 70.4264 325.528 73.41 328.256 76.1601C330.014 77.9328 331.871 79.5661 333.497 81.4672C333.843 81.8717 335.049 82.9186 334.176 82.8506" stroke="#C08AFF" stroke-width="2.50428" stroke-linecap="round"/>
<path d="M340.288 67.2687C343.953 67.3609 345.13 66.1418 348.812 66.8438" stroke="#C08AFF" stroke-width="2.50428" stroke-linecap="round"/>
<path d="M319.958 66.2296C318.353 66.152 316.697 66.4879 315.09 66.6065C312.982 66.762 315.049 67.1919 316.086 67.0167C316.669 66.9183 318.502 66.5121 316.863 66.7446C315.51 66.9366 314.099 67.5343 316.128 66.4757" stroke="#C08AFF" stroke-width="2.50428" stroke-linecap="round"/>
<path d="M340.267 67.5393C339.157 67.3402 338.068 66.3627 337.302 65.6149C334.621 62.9952 331.433 61.3663 328.393 59.2511C325.956 57.5551 323.415 56.0796 320.918 54.4806C320.555 54.2486 319.563 53.816 319.595 53.4099" stroke="#C08AFF" stroke-width="2.50428" stroke-linecap="round"/>
<path d="M2.71921 160.012C0.637148 160.012 3.67928 160.584 4.26528 160.505C6.81526 160.161 9.24542 160.012 11.8199 160.012C13.764 160.012 7.90261 160.151 6.02217 160.646C4.88788 160.944 0.687989 161.28 4.01931 161.28C5.62336 161.28 7.10588 160.646 8.65751 160.646C9.5609 160.646 6.48021 160.499 6.02217 161.28C5.1757 162.722 5.96621 166.132 6.19786 167.618C6.68241 170.726 7.04028 174.124 7.14658 177.267C7.28152 181.256 7.93402 186.038 9.3954 189.804C11.4102 194.996 16.8606 197.608 21.4477 199.981C30.1265 204.47 38.2363 208.186 48.2579 208.186C58.5314 208.186 67.9212 207.051 77.7034 203.714C86.5563 200.693 96.4289 195.019 103.143 188.395C109.867 181.761 114.353 173.696 119.236 165.717C124.469 157.166 127.852 147.303 131.113 137.862C134.654 127.61 139.882 118.091 142.146 107.365C144.456 96.4217 146.882 85.5976 148.822 74.58C150.575 64.6285 152.624 54.9789 155.92 45.4219C161.478 29.3088 176.941 19.5007 192.323 14.3622C206.506 9.62404 225.758 9.42387 238.002 19.0106C250.663 28.9238 260.47 44.3919 264.285 60.0714C268.23 76.2786 271.524 92.8369 271.524 109.584C271.524 117.312 269.948 127.039 271.84 134.622C272.678 137.981 272.156 141.968 272.156 145.433C272.156 148.017 272.715 151.304 271.664 153.673C271.393 154.285 271.871 155.575 270.891 155.575C269.24 155.575 267.566 154.941 265.831 154.941C265.313 154.941 261.09 154.941 263.301 154.941C266.148 154.941 268.994 154.941 271.84 154.941C272.827 154.941 280.469 155.33 277.708 156.068C275.115 156.761 271.82 156.209 269.134 156.209C269.025 156.209 272.773 156.494 273.913 156.702C277.345 157.327 273.271 156.209 271.84 156.209C270.535 156.209 266.317 156.711 269.767 156.068C272.093 155.634 273.11 155.098 270.259 155.892C268.368 156.418 267.679 157.198 266.464 155.575" stroke="#64D7C0" stroke-width="3.33904" stroke-linecap="round"/>
<path d="M273.146 51.0343C273.437 51.3252 268.3 48.5009 266.665 47.7266C260.744 44.9218 254.208 40.5202 252.719 33.7359C252.024 30.5717 252.595 22.398 257.859 26.2266C260.327 28.0214 263.402 36.5639 263.402 33.5124C263.402 28.3082 263.475 24.0688 265.905 19.2089C269.67 11.6799 272.796 17.2138 273.772 23.1424C275.457 33.3799 274.755 64.6279 274.755 54.2526" stroke="#C08AFF" stroke-width="3.33904" stroke-linecap="round"/>
<path d="M279.724 53.057C278.234 52.759 276.202 49.5388 275.357 48.4115C272.635 44.7823 269.871 40.8387 267.934 36.7221C267.167 35.0924 266.074 29.9306 269.272 29.9306C271.349 29.9306 272.606 33.5967 272.882 35.2577C272.985 35.8738 272.987 34.0104 273.009 33.8691C273.375 31.5265 274.191 29.2481 275.382 27.2039C276.436 25.3936 281.03 18.2151 282.552 23.3663C284.928 31.4082 282.209 40.5442 280.633 48.5125C280.375 49.8182 279.724 52.4006 279.724 52.4006" stroke="#EE526E" stroke-width="3.33904" stroke-linecap="round"/>
<path d="M172.937 198.013C183.205 198.669 193.552 196.9 203.809 197.386C206.525 197.515 201.934 197.333 201.444 197.351C197.178 197.504 192.708 197.659 188.451 197.387C180.57 196.884 204.228 196.588 212.124 196.474C215.153 196.43 218.195 196.746 221.217 196.939C224.405 197.142 220.434 196.853 219.431 196.882C215.242 197.004 210.947 198.067 206.835 198.821C203.008 199.522 207.702 199.711 209.032 199.683C213.973 199.577 218.93 199.03 223.87 198.783C227.445 198.604 223.861 199.123 222.448 199.356C222.052 199.421 217.511 200.377 217.806 200.618C218.843 201.464 221.402 200.861 222.545 200.546C223.794 200.201 219.065 199.413 218.579 199.369C213.854 198.933 216.557 198.076 219.545 197.352C220.355 197.155 232.1 194.999 226.422 193.634C225.975 193.526 222.288 192.631 222.981 192.375C226.074 191.23 230.157 191.321 233.401 191.481C237.129 191.665 230.03 192.234 229.483 192.27C225.245 192.55 221.034 192.77 216.795 192.499C215.041 192.387 220.302 192.723 222.056 192.835C223.28 192.913 224.613 192.864 225.821 193.104C226.063 193.153 221.138 194.32 220.57 194.415C217.289 194.96 214.002 195.581 210.708 196.037C209.984 196.137 207.997 195.927 207.39 196.46C206.562 197.189 209.596 196.373 210.694 196.267C213.534 195.991 216.382 195.756 219.227 195.541C221.9 195.34 224.462 195.383 219.817 195.348C214.798 195.311 208.383 196.807 203.489 195.172C202.298 194.774 204.231 194.24 204.417 194.192C207.208 193.477 210.132 193.21 212.988 192.891C213.644 192.818 221.396 192.321 217.236 192.816C212.392 193.393 207.359 193.926 202.487 194.126C199.129 194.264 203.24 194.232 204.352 194.303" stroke="#EE526E" stroke-width="1.66952" stroke-linecap="round"/>
<path d="M194.298 196.26C199.668 196.43 204.971 195.187 210.319 194.916C212.269 194.817 220.972 195.951 214.498 195.471C210.333 195.163 206.263 194.291 202.227 193.245C200.886 192.897 208.794 191.735 209.777 191.648C213.45 191.322 217.076 191.479 220.743 191.713C224.096 191.927 214.023 191.87 210.671 192.109C210.063 192.153 203.198 192.152 205.693 192.311C210.024 192.588 214.36 192.823 218.689 193.141C224.549 193.571 218.578 195.734 216.042 196.609C210.766 198.43 205.338 198.915 199.989 200.261C196.484 201.144 214.44 200.664 210.833 200.434C207.452 200.218 204.066 200.521 200.679 200.305C195.508 199.975 190.5 198.616 185.334 198.286C184.468 198.231 180.472 198.495 180.644 198.506C181.851 198.583 183.059 198.661 184.266 198.738" stroke="#64D7C0" stroke-width="1.66952" stroke-linecap="round"/>
<path d="M242.073 93.7283C239.535 91.0421 237.913 87.4008 236.114 84.226C233.842 80.2171 230.811 74.6487 231.838 69.8708C232.838 65.2153 236.432 68.6022 238.14 70.8363C239.373 72.4486 240.413 74.214 241.23 76.0718C241.578 76.8645 241.905 78.0316 241.831 76.4826C241.636 72.3839 243.531 68.7867 246.514 66.0848C247.417 65.2674 248.518 64.4075 249.55 65.4996C251.081 67.1193 250.265 70.2483 249.974 72.1621C249.063 78.1596 246.81 83.7654 244.156 89.1929C243.366 90.8067 241.579 92.6454 241.526 94.5004" stroke="#E2C488" stroke-width="3.33904" stroke-linecap="round"/>
<path d="M227.823 101.817C226.739 101.392 226.428 100.609 225.695 99.7155C223.82 97.4279 221.793 95.2716 220.322 92.68C218.836 90.0601 218.37 87.0216 218.641 84.0423C218.779 82.5214 219.157 80.1645 220.328 79.0582C222.752 76.7675 226.941 86.7148 227.627 88.1025C227.842 88.5379 229.135 91.5289 229.15 90.9895C229.209 88.9122 228.823 86.9813 229.394 84.9146C229.825 83.3565 232.554 75.1411 235.117 75.9317C237.77 76.75 237.618 83.3992 237.414 85.4911C236.753 92.2845 231.672 97.864 228.558 103.676" stroke="#64D7C0" stroke-width="3.33904" stroke-linecap="round"/>
<path d="M88.2599 196.258C88.2599 193.186 87.7143 190.582 85.4794 188.418C83.4597 186.462 83.77 195.908 83.9154 196.772C84.2385 198.694 84.8174 205.535 88.0862 204.791C89.1516 204.548 89.6414 200.89 89.6502 200.89" stroke="#9E7647" stroke-width="3.33904" stroke-linecap="round"/>
<path d="M93.4341 193.029C94.6885 191.567 92.7974 186.781 90.9796 186.512C87.493 185.996 89.1665 192.441 89.5771 194.118C89.8659 195.298 92.175 203.25 94.6419 201.16C96.1578 199.875 95.1873 197.873 95.1873 196.66" stroke="#1234F5" stroke-width="3.33904" stroke-linecap="round"/>
<path d="M213.518 9.56831C214.207 7.35681 214.617 4.10559 211.908 2.91619C209.026 2.11793 208.995 7.40512 209.025 9.56831C209.039 10.5339 209.623 19.7635 211.908 17.5063C213.063 16.3651 213.389 14.5322 213.518 14.1477" stroke="#EE526E" stroke-width="3.33904" stroke-linecap="round"/>
<path d="M219.145 10.2021C220.278 8.00692 221.803 4.92585 219.533 2.86196C216.612 0.20698 214.931 4.33124 214.884 6.53201C214.837 8.74841 214.884 10.9695 214.884 13.1863C214.884 14.2184 214.764 16.7257 215.659 17.5422C217.162 18.9132 218.758 15.4675 218.758 14.5394" stroke="#E2C488" stroke-width="3.33904" stroke-linecap="round"/>
<path d="M145.195 86.2157C144.678 85.9846 144.258 85.7072 143.677 85.5353C142.638 85.2276 141.641 84.8994 140.51 84.7885C139.603 84.6995 138.605 84.5989 137.688 84.6606C137.17 84.6955 136.76 84.7316 136.452 85.0417C135.948 85.5499 135.473 86.1436 135.576 86.7886C135.81 88.2555 137.653 89.6978 139.334 90.4741C141.966 91.6903 145.342 92.1544 148.458 92.1544C149.648 92.1544 150.951 92.1604 151.951 91.648C152.523 91.3546 153.425 90.6959 152.966 90.139C152.341 89.379 151.386 88.7264 150.408 88.1953C150.158 88.0598 149.579 87.827 149.286 87.827" stroke="#C08AFF" stroke-width="3.33904" stroke-linecap="round"/>
<path d="M169.785 164.77C177.527 169.188 188.137 167.484 193.187 160.747C198.327 153.892 200.995 146.436 198.976 137.938C198.236 134.826 195.954 132.037 193.934 129.631C191.05 126.196 186.672 122.958 182.424 121.478C175.581 119.094 167.447 122.896 163.219 128.383C155.054 138.981 157.36 157.982 169.253 164.9C172.938 167.043 177.678 168.035 181.912 168.154C186.75 168.291 190.922 165.509 193.804 161.759C196.662 158.04 198.266 152.916 199.209 148.363C200.047 144.318 199.831 140.937 198.606 137.006C195.633 127.459 187.208 121.241 176.984 122.597C171.433 123.334 166.048 127.486 162.74 131.852C159.342 136.337 157.33 143.158 158.056 148.766C158.782 154.38 160.616 158.986 165.43 162.217C167.571 163.654 169.894 164.833 172.182 166.021C174.051 166.992 176.208 168.365 177.991 167.537" stroke="#C08AFF" stroke-width="3.02534" stroke-linecap="round"/>
<path d="M163.703 133.109C165.234 129.597 169.432 124.807 173.628 123.722C177.824 122.638 179.853 122.883 183.976 124.385C188.099 125.887 191.955 130.977 195.562 135.124C203.189 143.892 199.238 156.179 191.139 163.188C186.083 167.563 179.571 169.793 172.98 167.503C166.99 165.422 162.802 160.864 161.347 154.852C159.638 147.789 160.818 139.73 163.703 133.109Z" stroke="#1234F5" stroke-width="3.02534" stroke-linecap="round"/>
<path d="M169.513 151.421C167.893 147.552 167.333 142.944 168.445 138.821C168.778 137.587 169.642 135.702 170.587 137.63C171.709 139.921 171.37 143.234 171.003 145.687C170.769 147.251 169.169 154.215 167.628 149.316C166.89 146.969 167.11 144.01 167.83 141.684C168.193 140.511 168.618 138.753 169.644 138.069" stroke="#EE526E" stroke-width="3.02534" stroke-linecap="round"/>
<path d="M177.257 149.839C176.753 149.698 176.966 147.718 176.92 147.299C176.658 144.894 176.355 142.277 177.041 139.913C177.204 139.352 177.955 136.636 178.982 137.234C180.461 138.094 180.457 140.42 180.629 141.876C180.976 144.811 181.207 149.114 179.434 151.704C178.467 153.115 176.643 149.099 176.507 148.509C175.809 145.484 175.788 140.843 178.09 138.401C179.041 137.392 180.203 137.88 180.712 138.941C181.74 141.082 181.264 143.09 181.04 145.379C180.916 146.658 180.387 147.861 180.22 149.137C180.092 150.119 180.36 151.494 179.811 152.267" stroke="#1234F5" stroke-width="3.02534" stroke-linecap="round"/>
<path d="M174.294 168.992C174.454 163.309 173.449 180.335 173.289 186.018C173.212 188.726 172.927 191.509 173.261 194.207C173.422 195.503 173.251 192.919 173.231 192.709C172.782 188.002 172.205 183.154 172.47 178.421C172.631 175.526 173.306 166.855 173.224 169.754" stroke="#C08AFF" stroke-width="3.02534" stroke-linecap="round"/>
<path d="M183.541 169.31C183.378 175.091 183.704 180.86 183.541 186.637C183.501 188.057 183.67 189.44 183.666 190.851C183.664 191.491 183.707 189.408 183.715 189.121" stroke="#64D7C0" stroke-width="3.02534" stroke-linecap="round"/>
<path d="M181.98 167.971C181.366 170.92 181.727 174.095 181.782 177.087C181.851 180.863 182.237 184.624 182.408 188.396C182.498 190.391 182.857 192.396 182.829 194.391C182.821 194.984 182.778 196.201 182.814 194.918C182.962 189.695 182.795 184.362 182.669 179.135C182.578 175.351 182.497 171.725 183.308 168.008" stroke="#9E7647" stroke-width="3.02534" stroke-linecap="round"/>
<path d="M173.128 168.04C172.697 167.081 173.116 169.408 173.134 169.701C173.467 174.875 173.716 180.105 173.462 185.291C173.299 188.624 173.089 191.923 173.314 195.256C173.351 195.816 173.497 197.195 173.535 195.86" stroke="#C08AFF" stroke-width="3.02534" stroke-linecap="round"/>
<path d="M151.138 150.717C149.944 146.949 150.309 142.679 150.974 138.89C152.029 132.876 154.002 127.68 157.934 122.631C163.967 114.885 175.202 113.12 185.017 115.353C189.007 116.261 193.803 117.911 196.593 120.711C197.959 122.082 199.003 123.619 199.887 125.259C201.153 127.609 202.803 129.768 203.875 132.204C205.682 136.312 206.577 140.597 206.453 144.993C206.368 148.032 206.745 143.991 206.649 143.005C205.987 136.182 204.62 130.361 200.029 124.63C195.236 118.648 186.637 113.935 178.198 113.91C167.331 113.877 158.676 121.27 154.38 129.528C153.31 131.585 152.863 133.817 152.532 136.047C152.151 138.61 151.531 141.185 151.349 143.767C151.287 144.655 150.826 150.227 151.718 149.991" stroke="#64D7C0" stroke-width="3.02534" stroke-linecap="round"/>
<path d="M151.586 147.12C151.716 142.514 152.74 138.128 154.157 133.707C155.691 128.92 156.998 124.832 160.337 120.821C165.339 114.812 174.494 112.872 182.284 113.092C190.741 113.331 198.191 117.071 202.377 124.116C204.703 128.032 205.72 132.773 206.409 137.149C206.735 139.218 207.205 141.383 207.312 143.472C207.371 144.62 208.069 146.119 206.747 144.602" stroke="#C08AFF" stroke-width="3.02534" stroke-linecap="round"/>
<path d="M183.188 112.932C183.229 111.495 183.739 110.087 183.996 108.677C184.606 105.34 185.331 101.954 185.658 98.5788C185.876 96.3324 186.442 94.2153 187.092 92.0556C187.456 90.8437 187.514 91.2235 187.214 92.2424C185.65 97.5462 184.952 103.077 183.887 108.49C183.638 109.754 183.24 111.079 183.204 112.37C183.187 112.965 183.214 111.994 183.219 111.833" stroke="#C08AFF" stroke-width="3.02534" stroke-linecap="round"/>
<path d="M182.547 112.722C182.752 112.908 183.28 109.528 183.322 109.058C183.663 105.319 184.417 101.637 184.981 97.9272C185.34 95.5647 186.077 93.3217 186.509 91.0025C186.701 89.9717 186.511 91.3578 186.5 91.7466" stroke="#C08AFF" stroke-width="3.02534" stroke-linecap="round"/>
<path d="M196.741 118.128C197.233 117.799 197.606 117.385 197.992 116.936C199.055 115.699 200.159 114.501 201.224 113.266C203.851 110.22 206.198 106.893 208.936 103.954C209.074 103.806 210.313 102.202 210.544 102.552C210.732 102.838 211.179 103.031 211.415 103.323C212.153 104.238 212.95 105.094 213.633 106.054C215.054 108.047 216.495 110.149 218.171 111.937C219.079 112.906 220.163 113.705 221.071 114.673C221.452 115.08 221.745 115.523 222.046 115.988C222.23 116.274 222.851 117.067 222.274 116.328" stroke="#C08AFF" stroke-width="3.02534" stroke-linecap="round"/>
<path d="M195.995 118.325C197.487 116.924 198.713 115.324 199.943 113.696C202.243 110.652 204.488 107.549 206.999 104.67C208.047 103.469 209.209 102.409 210.297 101.26C210.831 100.697 210.683 100.93 210.96 101.47C211.803 103.113 212.86 104.637 213.877 106.175C215.15 108.1 216.395 110.051 217.751 111.92C219.385 114.171 220.681 116.705 222.156 119.064C222.362 119.393 223.684 121.429 222.896 120.085C221.813 118.237 221.023 116.234 219.7 114.517C217.712 111.938 215.467 109.56 213.469 106.986C212.445 105.666 211.618 104.226 210.642 102.877C210.409 102.554 209.752 101.951 210.067 101.655" stroke="#EE526E" stroke-width="3.02534" stroke-linecap="round"/>
<path d="M170.104 138.637C169.224 138.673 169.03 139.617 168.834 140.5C168.349 142.686 168.115 144.942 168.212 147.194C168.261 148.351 168.411 149.919 169.25 150.69C169.919 151.305 170.433 151.165 170.745 150.234C171.72 147.324 171.773 143.938 171.57 140.886C171.528 140.248 171.2 136.718 170.116 138.21" stroke="#E2C488" stroke-width="3.02534" stroke-linecap="round"/>
<path d="M174.184 121.009C177.155 120.25 180.629 120.359 183.306 122.024C188.854 125.476 190.767 127.877 192.257 129.663C193.147 130.729 194.212 132.166 194.963 133.329C195.49 134.145 196.22 135.386 196.66 136.256C197.757 138.42 197.846 140.926 198.228 143.33C198.627 145.843 198.165 148.491 197.435 150.907C196.548 153.839 195.149 156.573 193.496 159.142C190.487 163.821 185.49 166.878 179.903 167.507C176.488 167.891 173.24 166.861 170.165 165.463C167.117 164.077 164.44 161.507 162.58 158.756C158.392 152.56 156.974 143.911 158.99 136.717C161.036 129.411 166.645 122.933 174.184 121.009Z" stroke="#E2C488" stroke-width="3.02534" stroke-linecap="round"/>
</svg>
