<svg width="226" height="179" viewBox="0 0 226 179" fill="none" xmlns="http://www.w3.org/2000/svg">
<path d="M192.866 54.4834C194.541 54.4834 196.098 53.9223 197.694 53.4559C201.848 52.2426 206.099 51.844 210.331 51.0159C211.485 50.7902 213.265 49.6494 213.671 51.2727C214.278 53.7038 216.43 56.145 217.934 58.0793C220.066 60.8203 222.588 63.2445 224.304 66.2471C224.907 67.3021 221.999 70.2158 221.427 71.0503C218.483 75.3493 218.177 81.301 216.484 86.2977C216.484 86.7377 192.39 77.9769 189.314 76.0679M189.314 76.0679C188.248 75.4061 190.2 76.9531 189.314 76.0679ZM189.314 76.0679C189.314 76.2043 189.407 71.6969 189.314 71.0503C189.975 66.2471 190.604 62.681 191.247 58.4645C191.51 56.746 192.403 51.6404 192.403 53.3789C192.403 54.1101 191.941 54.6477 191.941 55.408" stroke="#C08AFF" stroke-width="2.50428" stroke-linecap="round"/>
<path d="M194.963 52.1982C194.064 58.2406 191.862 64.0538 190.234 69.9454C190.049 70.6138 188.435 76.5228 189.4 76.3168C191.545 75.8593 192.845 75.959 194.99 76.8069C199.727 78.6792 204.988 79.7449 209.368 82.3787C211.284 83.531 213.274 85.0272 215.28 85.99C216.724 86.6832 217.251 83.0585 217.484 82.3271C218.967 77.6657 220.28 72.5932 222.778 68.3203C224.122 66.0203 225.269 66.0628 223.02 65.199" stroke="#9E7647" stroke-width="2.50428" stroke-linecap="round"/>
<path d="M213.208 51.7094C213.282 54.8073 213.734 57.8082 215.164 60.9982C216.264 63.4507 216.562 64.1291 216.814 67.1581C217.24 72.269 215.714 76.1779 215.714 80.9078C215.714 84.2077 216.264 88.0928 216.264 85.1977" stroke="#E2C488" stroke-width="2.50428" stroke-linecap="round"/>
<path d="M196.101 55.4082C195.391 59.8506 195.577 64.2837 196.101 68.7388C196.383 71.1323 197.097 71.3426 199.158 72.3347C202.459 73.924 205.229 77.1034 208.019 79.4495C209.414 80.6224 216.374 87.9764 216.374 85.1979" stroke="#EE526E" stroke-width="2.50428" stroke-linecap="round"/>
<path d="M218.294 64.6541C214.631 67.2024 228.428 62.999 222.892 65.6044C221.022 66.4843 216.402 69.9952 217.216 68.0959C217.461 67.5237 219.84 66.4505 218.294 66.9657" stroke="#64D7C0" stroke-width="2.50428" stroke-linecap="round"/>
<path d="M197.489 69.7397C195.889 71.1621 192.408 72.0427 191.479 73.9007" stroke="#64D7C0" stroke-width="2.50428" stroke-linecap="round"/>
<path d="M216.375 66.5817C214.907 67.1537 213.651 65.7879 212.411 65.0594C208.979 63.0433 205.729 60.7211 202.129 58.9703C200.263 58.0625 197.836 57.1989 196.5 55.5723C196.129 55.1218 196.173 54.8384 195.695 54.8384" stroke="#1234F5" stroke-width="2.50428" stroke-linecap="round"/>
<path d="M2 76.7808C5.85063 74.4058 11.3853 73.7613 15.8496 73.7613C19.8803 73.7613 9.91116 73.8099 8.4018 74.1388C3.02398 75.3105 12.4783 73.8155 13.8831 73.7613C14.3023 73.7452 7.64075 74.788 6.26787 75.8582C5.79974 76.2231 7.17422 75.0479 7.43944 74.5162C8.37435 72.6421 8.74596 70.8624 9.15495 68.8127C10.9866 59.6338 12.4947 51.382 16.7702 42.8115C29.9244 16.4428 64.1484 0.365152 92.7968 2.13216C103.774 2.80921 114.811 8.01338 119.91 18.2361C123.953 26.3394 123.095 36.7918 116.647 43.3986C112.041 48.117 103.729 47.5239 98.4036 44.3212C94.9435 42.2405 97.5592 36.4115 99.1567 33.9208C104.093 26.2242 114.241 26.2152 122.17 28.1334C139 32.2052 154.002 41.1154 162.003 57.1541C165.551 64.267 169.684 72.4664 167.694 80.5552C165.588 89.1126 157.97 95.8034 149.785 98.5044C144.087 100.385 136.402 99.4459 134.262 93.0106C132.647 88.1545 134.461 82.154 139.158 79.8003C144.636 77.0549 149.781 74.5388 155.978 76.026C162.392 77.5652 168.984 79.6438 172.966 85.4199C182.879 99.8005 183.673 119.097 182.171 135.829C181.281 145.735 181.412 155.893 180.121 165.73C179.698 168.949 179.822 172.188 178.949 175.25C178.506 176.803 168.912 176.424 167.777 176.424C159.5 176.424 171.368 175.942 173.677 175.669C177.028 175.274 180.135 174.914 183.51 174.914C186.788 174.914 176.685 174.438 173.719 175.837C173.527 175.928 182.309 175.136 184.514 174.914C186.005 174.765 181.499 175.003 180.037 175.334C179.177 175.528 175.225 175.794 175.225 176.424" stroke="#1234F5" stroke-width="3.33904" stroke-linecap="round"/>
<path d="M184.71 121.245C186.334 121.245 190.739 119.3 189.502 117.072C187.798 114.005 184.854 113.571 181.448 113.844C178.408 114.087 174.048 116.375 175.368 119.94C176.196 122.176 179.445 120.297 180.074 121.554" stroke="#C08AFF" stroke-width="3.33904" stroke-linecap="round"/>
<path d="M184.401 128.046C186.661 128.046 189.965 126.224 189.965 123.855C189.965 120.654 186.679 119.7 183.938 119.7C180.84 119.7 176.332 122.049 175.506 125.264C174.667 128.525 178.047 128.046 179.764 128.046" stroke="#64D7C0" stroke-width="3.33904" stroke-linecap="round"/>
<path d="M112.31 43.8851C112.31 42.1073 111.498 39.6034 109.924 38.5912C107.487 37.0246 107.613 41.9856 107.843 43.1886C108.226 45.191 109.335 50.311 112.153 50.311C113.336 50.311 113.916 49.1358 113.407 48.1168" stroke="#64D7C0" stroke-width="3.33904" stroke-linecap="round"/>
<path d="M157.375 46.3498C158.849 45.2222 161.155 43.8158 161.096 41.698C161.036 39.5293 157.839 39.5923 156.403 40.0647C154.672 40.6345 153.137 41.7217 152.02 43.1452C151.035 44.4006 149.587 45.9181 149.56 47.611C149.525 49.7629 152.198 49.7211 153.467 48.7687" stroke="#E2C488" stroke-width="3.33904" stroke-linecap="round"/>
</svg>
