<svg width="364" height="197" viewBox="0 0 364 197" fill="none" xmlns="http://www.w3.org/2000/svg">
<path d="M2 194.5C9.41589 194.5 30 195.5 23.5 194.5C18.1469 194.5 1.14686 194.5 6.5 194.5C9.55124 194.5 20.5512 194.5 17.5 194.5C16.0419 194.5 13.4141 195.39 12.5 194.5C11.7179 193.738 11.7225 186.274 11.7225 184.5C11.7225 174.541 10.5 163.5 10.5 158.5C10.5 153.5 8.85039 127.513 6.38263 110.206C3.19415 87.8452 15.148 64.5451 27.1443 46.3169C29.9136 42.1091 32.657 37.7646 36.3097 34.2067C40.6039 30.024 44.8801 28.1102 50.4962 26.2108C61.5699 22.4657 77.1876 20.5295 88.1143 25.6674C94.9823 28.8969 101.758 31.4583 107.322 36.6908C113.008 42.0381 117.943 46.9999 122.465 53.4588C127.835 61.1305 135.07 65.6213 144.103 67.9368C156.549 71.127 166.384 64.6759 177.059 59.2034C184.938 55.1641 193.009 49.0212 199.614 43.1729C206.573 37.0106 215.108 31.6967 223.205 27.0648C232.322 21.8489 240.173 14.9286 249.944 10.6461C258.84 6.74656 267.937 4.0183 277.559 2.45618C285.748 1.1268 293.027 2.91873 300.832 5.05677C310.988 7.83907 322.447 11.4739 330.799 17.9821C336.617 22.516 341.721 29.6755 344.228 36.458C346.82 43.4714 350.614 49.6248 351.919 57.1074C352.27 59.1192 358.172 85.6386 356.063 85.7528C352.807 85.929 349.687 86.4514 346.38 86.4514C338.471 86.4514 349.891 85.2523 352.078 85.0541C354.591 84.8264 362.174 85.0541 359.65 85.0541C356.66 85.0541 351.175 85.7167 348.731 83.812C348.129 83.3431 349.555 83.9703 349.687 84.0061C351.87 84.5966 354.151 84.2444 356.382 84.3942C363.206 84.8526 351.614 85.0541 349.847 85.0541C349.345 85.0541 352.785 85.0541 353.354 85.0541C354.561 85.0541 360.34 84.2511 361.164 85.0541C362.514 86.3687 357.374 85.5271 355.505 85.908C353.436 86.3299 355.032 86.4514 356.063 86.4514" stroke="#9E7647" stroke-width="3.49888" stroke-linecap="round"/>
<path d="M175.394 37.8634C172.954 34.7915 170.973 31.0059 168.98 27.6079C166.483 23.3492 163.945 17.452 166.537 12.6164C168.217 9.48236 171.026 17.2747 171.406 18.4919C171.953 20.2415 172.205 22.1061 172.798 23.8333C173.289 25.2655 173.295 22.6825 173.324 22.4089C173.726 18.6571 174.867 14.2465 177.464 11.4769C180.123 8.64135 181.065 14.8682 181.163 16.5334C181.464 21.6645 179.535 26.6868 177.685 31.329C177.014 33.0115 176.737 35.0453 176.005 36.5814" stroke="#EE526E" stroke-width="3.49888" stroke-linecap="round"/>
<path d="M44.0439 26.0615C44.0439 22.9078 40.9125 20.1739 37.8332 19.514C36.4422 19.2159 36.9301 22.4032 37.0318 22.9917C37.6096 26.3349 38.9143 29.0954 40.3486 32.1582C41.0548 33.6662 46.3087 41.3426 48.6295 37.8255C50.0608 35.6565 47.9182 33.7925 47.2494 31.8576" stroke="#E2C488" stroke-width="3.49888" stroke-linecap="round"/>
<path d="M52.2831 22.4653C52.2831 19.3589 49.95 15.5448 46.8484 15.1322C43.8861 14.738 47.1155 24.547 47.6363 25.82C48.7151 28.4569 50.4677 30.3208 51.8992 32.7016C52.5917 33.8532 53.599 35.2391 55.0307 35.2391C58.1744 35.2391 56.8912 30.854 55.556 29.4328" stroke="#C08AFF" stroke-width="3.49888" stroke-linecap="round"/>
<path d="M62.1497 21.7777C62.1497 18.0171 60.9113 14.3602 57.1214 12.6716C53.4102 11.0181 56.2339 21.5949 56.7346 22.6925C57.7525 24.9243 59.4632 31.2788 62.5365 31.7134C64.7673 32.029 64.8573 29.5022 64.8573 27.9051" stroke="#64D7C0" stroke-width="3.49888" stroke-linecap="round"/>
<path d="M158.926 64.0386C160.127 61.3841 160.032 56.1566 157.202 54.5919C154.915 53.3277 154.119 63.4742 154.098 64.8859C154.066 67.1353 153.764 75.4764 157.202 75.4764C158.417 75.4764 160.998 71.4748 159.961 70.9013" stroke="#C08AFF" stroke-width="3.49888" stroke-linecap="round"/>
<path d="M333.976 17.7688C336.583 16.3914 338.644 14.3834 338.644 11.3852C338.644 7.74758 331.236 11.7355 330.173 12.3341C328.055 13.5276 319.23 19.6143 322.912 22.6212C324.601 24.0002 329.942 21.1182 329.698 20.8743" stroke="#1234F5" stroke-width="3.49888" stroke-linecap="round"/>
<path d="M339.011 23.5514C340.708 23.4569 345.051 21.0217 344.753 18.9259C344.18 14.9049 337.571 17.8722 335.788 18.7332C332.806 20.1739 329.022 23.8789 329.022 27.4917C329.022 30.6915 334.546 28.177 335.938 28.177" stroke="#64D7C0" stroke-width="3.49888" stroke-linecap="round"/>
<path d="M351.989 50.0007C354.378 49.2435 357.105 48.6094 358.471 46.175C360.112 43.2496 354.364 43.0856 352.761 43.1144C349.828 43.1672 340.544 45.9981 340.398 49.9156C340.269 53.3619 342.991 52.6786 345.807 52.6786" stroke="#C08AFF" stroke-width="3.49888" stroke-linecap="round"/>
</svg>
