<svg width="38" height="50" viewBox="0 0 38 50" fill="none" xmlns="http://www.w3.org/2000/svg">
<path d="M15.9934 34.8557C13.2364 31.0769 9.98384 27.7256 7.38447 23.8041C4.70481 19.7614 -0.0954269 10.1442 3.7613 5.49425C5.41887 3.49575 9.32958 11.2616 9.86185 12.2746C10.1527 12.828 12.6094 18.2075 12.6489 16.8744C12.7662 12.9151 13.5268 8.93033 15.4669 5.37477C17.4489 1.74251 20.5723 0.280434 22.0939 4.86699C24.382 11.7638 23.1154 19.9625 21.0101 26.7313C20.6509 27.8861 17.1082 39.1808 17.1082 33.7804" stroke="#E2C488" stroke-width="3.49888" stroke-linecap="round"/>
<path d="M33.0127 46.1831C39.5085 52.6309 18.9909 33.3967 15.7368 24.8694C14.5995 21.8891 13.0573 14.943 17.8504 19.7006C18.9356 20.7778 22.0663 28.0011 23.3333 28.0011C23.8884 28.0011 23.4042 25.6923 23.3946 25.5687C23.219 23.303 23.6053 20.9763 24.3135 18.8189C25.319 15.756 30.0415 9.64737 33.1353 14.0149C37.4305 20.0786 34.9627 30.6912 33.6866 37.3657C33.1293 40.2806 32.4614 49.15 32.4614 46.1831" stroke="#1234F5" stroke-width="3.49888" stroke-linecap="round"/>
</svg>
