<svg width="88" height="88" viewBox="0 0 88 88" fill="none" xmlns="http://www.w3.org/2000/svg">
  <rect width="88" height="88" rx="16" fill="#262E45" />
  <path
    d="M37.0619 24.0648C38.0399 23.8739 38.5203 24.1303 39.4089 24.5001C41.3452 25.3059 43.3815 25.9212 45.4295 26.4105C48.651 27.1803 53.1673 27.2978 56.2821 28.4177C57.6178 28.6823 60.1409 29.2451 60.4378 29.6672C60.7346 30.0892 63.8573 47.6188 63.8573 50.0129C62.6686 51.265 60.2687 52.5292 58.8928 53.5837C55.2025 56.412 49.6989 59.1767 46.2969 62.3219C45.5411 63.0207 44.8497 64.2688 43.9499 63.4585C42.4185 62.0794 41.2594 60.493 39.8936 58.9605C37.2078 55.9469 34.4057 52.8356 31.5005 50.0129C30.126 48.6773 28.9977 47.1794 27.6483 45.8293C27.0046 45.1852 27.7977 44.039 28.1075 43.4352C30.7068 38.3704 33.4019 33.4047 36.1435 28.4177C36.6611 27.4762 38.2099 25.7893 38.2099 24.7177"
    stroke="#C08AFF" stroke-width="2.62416" stroke-linecap="round" />
  <path
    d="M37.892 24.2771C37.1504 24.6578 36.8113 25.1454 36.3432 25.8551C35.1754 27.6252 34.0867 29.4543 32.8866 31.1999C30.9255 34.0525 28.8224 36.7916 26.8423 39.6295C25.9151 40.9584 25.2066 42.3944 24.3868 43.7832C24.0819 44.2996 24.5197 44.6529 24.8023 45.0252C28.119 49.3951 44.4251 63.9998 44.4251 63.9998"
    stroke="#1234F5" stroke-width="2.62416" stroke-linecap="round" />
  <path
    d="M60.597 29.8325C58.6423 35.1364 55.7067 42.234 55.9357 47.0003M55.9357 47.0003C55.9936 48.2057 55.9357 45.7921 55.9357 47.0003ZM55.9357 47.0003C54.0841 50.4377 49.2618 54.6126 47.2691 57.9756C46.6413 59.0352 46.0486 60.113 45.5358 61.2236C45.3785 61.5643 45.1801 62.4973 44.9941 61.8069"
    stroke="#E2C488" stroke-width="2.62416" stroke-linecap="round" />
  <path
    d="M39.0491 25.3892C36.9192 30.4181 35.98 35.6443 34.4531 40.8346C33.7642 43.1761 34.6927 45.4183 35.5301 47.6924C37.2994 52.4973 39.8716 56.669 42.4614 61.0621C42.6833 61.4385 43.2453 62.1123 43.2718 62.568C43.3148 63.3056 43.2718 62.5973 43.2718 62.2017"
    stroke="#EE526E" stroke-width="2.62416" stroke-linecap="round" />
  <path
    d="M55.7725 47.6099C57.0838 47.9783 58.5285 48.2358 59.8941 48.5662C61.1873 48.8791 62.3358 49.3053 63.7526 49.5225C64.3441 49.6131 63.7191 49.4843 63.4676 49.4578C62.0879 49.3124 61.2221 49.2542 60.3106 48.7741"
    stroke="#1234F5" stroke-width="2.62416" stroke-linecap="round" />
  <path
    d="M34.2128 41.7773C32.1972 42.6773 29.589 42.8398 27.4226 43.2593C26.3662 43.4638 25.3816 43.8778 24.3421 44.1443C23.4728 44.3672 24.4932 44.2588 24.8411 44.1855"
    stroke="#9E7647" stroke-width="2.62416" stroke-linecap="round" />
  <path
    d="M55.7723 47.6107C54.0267 47.1044 49.7226 43.747 48.7705 42.4055C46.4211 39.0949 43.8024 36.0134 41.1939 32.8926C39.5392 30.9128 38.69 28.3601 37.7535 25.9875C37.4632 25.252 37.6211 23.6057 38.3439 24.5742"
    stroke="#64D7C0" stroke-width="2.62416" stroke-linecap="round" />
</svg>
  