<svg width="186" height="126" viewBox="0 0 186 126" fill="none" xmlns="http://www.w3.org/2000/svg">
<path d="M137.271 37.4238C128.186 44.9247 122.558 57.7902 124.023 69.9633C124.703 75.6114 128.449 79.7387 133.154 82.2928C138.066 84.9595 144.944 87.0075 150.519 86.7072C158.592 86.2724 165.875 81.7036 168.631 73.688C171.271 66.0103 169.278 58.8192 166.091 51.6674C163.024 44.7865 157.465 39.4241 150.187 37.7342C142.873 36.036 136.511 36.8901 131.892 43.5109C125.726 52.3499 123.368 64.3551 125.915 75.0158C126.307 76.6561 130.719 85.0537 136.814 84.5571" stroke="#64D7C0" stroke-width="2.95592" stroke-linecap="round"/>
<path d="M142.984 71.3232C145.381 67.7991 147.266 65.056 147.535 60.6131C147.658 58.5764 146.561 51.7992 142.916 53.2906C136.652 55.853 139.714 72.5898 142.83 70.9639C145.8 69.4146 146.396 65.4506 146.834 62.5635C147.241 59.8753 146.515 55.3839 143.891 53.9407C140.607 52.1345 138.325 58.6959 137.937 60.8527C137.388 63.9031 137.963 69.7126 141.444 70.7073" stroke="#EE526E" stroke-width="2.95592" stroke-linecap="round"/>
<path d="M153.763 69.167C156.174 66.5778 156.564 63.9264 156.535 60.4758C156.523 59.1333 156.18 52.013 153.147 52.8795C152.069 53.1876 151.385 55.6172 151.06 56.4723C150.109 58.9725 149.645 61.8063 149.828 64.4792C149.929 65.9506 150.745 73.9984 154.071 71.5793C159.057 67.953 158.252 58.1111 154.14 54.1456C152.391 52.459 150.675 55.3423 150.102 56.7119C148.48 60.5873 148.094 66.3304 150.684 69.7829" stroke="#1234F5" stroke-width="2.95592" stroke-linecap="round"/>
<path d="M148.682 86.8586C144.197 87.5949 140.419 86.8586 135.286 84.566C131.186 82.2233 127.942 80.0106 126.971 74.9509C126.293 71.4168 125.497 67.7442 125.91 64.1382C126.299 60.7541 127.307 57.5931 128.511 54.4204C130.909 48.0977 135.624 41.5034 142.129 39.0568C148.495 36.6629 156.818 38.5729 161 44.1039C162.959 46.6949 164.495 49.3015 166.013 52.1621C167.367 54.7123 167.559 57.4827 168.22 60.2374C168.922 63.1608 168.504 66.2627 167.929 69.1682C167.416 71.7621 167.07 74.2718 165.534 76.4907C161.733 81.9811 155.195 85.7893 148.682 86.8586Z" stroke="#9E7647" stroke-width="2.95592" stroke-linecap="round"/>
<path d="M137.986 90.2751C137.986 93.9301 137.289 97.5677 137.223 101.225C137.155 105.059 135.782 109.039 136.631 112.862C136.927 114.197 137.162 115.655 137.223 113.396C137.304 110.45 138.692 107.566 138.748 104.621C138.835 100.014 141.035 90.643 141.035 88.2148" stroke="#EE526E" stroke-width="2.95592" stroke-linecap="round"/>
<path d="M154.071 86.7207C152.198 90.6645 151.923 95.8046 151.317 100.083C150.853 103.356 150.684 106.572 150.684 109.869C150.684 111.872 151.381 105.922 151.608 103.932C152.056 100.002 152.224 95.9792 152.224 92.0244C152.224 90.3901 152.363 88.4734 151.762 86.9089C151.424 86.0313 151.608 90.0204 151.608 90.382C151.608 96.3472 151.608 114.243 151.608 108.278" stroke="#1234F5" stroke-width="2.95592" stroke-linecap="round"/>
<path d="M155.303 86.4131C152.089 95.3913 151.096 104.393 149.759 113.753C149.509 115.506 149.341 120.824 149.451 119.057C149.548 117.515 149.717 116.339 149.451 114.745" stroke="#C08AFF" stroke-width="2.95592" stroke-linecap="round"/>
<path d="M139.597 87.6445C138.637 95.3235 139.02 103.086 139.443 110.793C139.558 112.873 139.61 115.013 139.974 117.072C140.212 118.422 139.804 115.669 139.768 115.429C139.302 112.3 139.34 109.019 139.135 105.865C138.876 101.855 138.467 97.7569 138.742 93.7352C138.865 91.9304 139.048 90.1391 139.272 88.346C139.334 87.8472 139.549 88.7326 139.597 88.8764" stroke="#64D7C0" stroke-width="2.95592" stroke-linecap="round"/>
<path d="M174.432 55.4692C174.432 41.473 159.986 26.9004 143.281 26.1635C127.103 25.4498 119.762 40.9251 116.813 52.2524C116.155 54.7797 115.778 57.39 115.664 59.979C115.657 60.1548 115.686 62.8835 115.808 62.8418C116.283 62.6788 115.97 59.9337 115.97 59.5788C115.97 57.4216 116.147 55.2821 116.293 53.1297C116.626 48.1931 117.995 43.8344 120.563 39.4003C122.927 35.3201 126.198 30.9175 131.509 29.4265C136.055 28.1505 141.257 27.9656 145.99 28.4876C150.772 29.0149 155.018 31.0123 159.233 32.8896C162.582 34.3808 165.166 36.0576 167.434 38.6615C169.698 41.2615 170.609 44.8519 171.597 47.9273C171.999 49.1793 172.58 50.366 173.069 51.5905C173.507 52.6874 173.446 53.8589 173.786 54.9767C174.043 55.8196 174.811 59.7772 174.432 56.8545" stroke="#C08AFF" stroke-width="2.95592" stroke-linecap="round"/>
<path d="M174.289 55.0262C173.656 52.0784 173.08 49.4349 171.398 46.7358C168.908 42.7393 165.373 38.0929 161.548 34.9807C157.793 31.9251 154.093 29.6766 149.111 28.5773C144.581 27.5778 140.666 27.592 136.209 28.8557C127.27 31.3902 119.47 37.7396 116.152 45.452C114.196 49.9999 113.583 54.3671 113.583 59.1869C113.583 59.8849 113.006 64.9358 114.225 62.8217" stroke="#E2C488" stroke-width="2.95592" stroke-linecap="round"/>
<path d="M161.769 30.9807C163.27 30.7931 165.063 25.4667 165.533 24.4452C168.084 18.9003 171.663 13.8366 174.088 8.26031C174.823 6.5679 174.922 8.33188 175.183 9.30394C176.132 12.8428 177.565 16.3006 179.015 19.6547C180.527 23.1533 182.128 26.6092 183.6 30.1252C183.909 30.8642 184.619 32.607 183.788 30.9465C182.937 29.2435 182.783 27.2156 182.094 25.4375C181.016 22.6506 179.7 19.9904 178.536 17.2424C177.46 14.7028 175.925 12.3283 175.011 9.73166C174.945 9.54327 174.418 7.61018 174.224 7.61018C173.308 7.61018 171.892 11.1067 171.487 11.7163C169.116 15.29 166.548 18.7341 164.25 22.3579C162.579 24.993 161.252 27.8271 159.614 30.4674C159.298 30.9753 160.131 29.8365 160.23 29.4409" stroke="#1234F5" stroke-width="2.95592" stroke-linecap="round"/>
<path d="M154.773 54.5697C153.433 54.2448 152.305 55.3474 151.518 56.3309C150.042 58.1764 149.33 61.5748 150.005 63.8778C150.422 65.301 151.372 67.3316 152.972 67.7551C154.326 68.1136 155.694 67.4959 156.487 66.4091C157.774 64.647 158.445 61.5218 157.786 59.3912C157.367 58.0336 156.84 55.534 155.014 55.534" stroke="#E2C488" stroke-width="2.95592" stroke-linecap="round"/>
<path d="M159.526 31.5998C160.339 31.4982 161.332 28.8206 161.607 28.3028C163.419 24.8974 165.713 21.7454 167.782 18.4927C169.328 16.0642 171.74 13.6864 172.66 10.9258" stroke="#64D7C0" stroke-width="2.95592" stroke-linecap="round"/>
<path d="M148.26 26.14C148.26 20.5004 148.388 14.8584 148.26 9.21927C148.21 6.98885 147.439 4.78948 147.439 2.55816C147.439 0.922473 148.243 3.3567 148.26 3.82147C148.53 10.9466 149.902 19.7831 149.902 26.14" stroke="#EE526E" stroke-width="2.95592" stroke-linecap="round"/>
<path d="M119.258 117.614C119.258 109.158 112.985 99.7932 106.403 94.9775C102.05 91.7921 96.1247 89.4622 90.7637 91.2492C87.6914 92.2733 84.9009 94.8848 82.6535 97.1322C79.2089 100.577 79.2237 105.124 80.5715 109.673C81.5998 113.143 84.2388 114.721 87.0112 111.948C91.6825 107.277 87.0393 100.347 82.8714 97.568C75.7962 92.8511 67.8123 93.4648 60.4291 97.1564C52.6271 101.057 48.0943 106.55 44.3055 114.127C43.4987 115.741 42.8738 117.544 41.594 118.824C40.8404 119.578 40.1265 120.664 40.8193 120.664" stroke="#9E7647" stroke-width="3" stroke-linecap="round"/>
<path d="M2.62256 107.315C3.8812 105.05 6.60482 103.259 8.56376 101.698C9.38494 101.044 12.7396 97.3004 14.005 97.9331C17.1047 99.4829 20.0974 101.487 23.3285 102.757C23.9557 103.003 24.6359 103.258 24.7991 103.992C25.3221 106.346 25.1387 109.02 25.5197 111.433C25.9104 113.908 25.9611 116.485 26.6521 118.904C26.9276 119.868 26.1625 119.863 25.3727 120.021C20.623 120.971 15.9455 122.101 11.152 122.874C10.3248 123.008 9.49021 123.405 8.71082 122.992C7.85763 122.54 7.57638 120.449 7.24023 119.624C6.1179 116.87 4.94755 113.885 4.15198 111.021C3.93305 110.233 3.57636 109.556 3.40197 108.771C3.12056 107.505 3.15197 108.305 3.15197 109.168" stroke="#EE526E" stroke-width="3" stroke-linecap="round"/>
<path d="M13.4756 99.9043C14.6981 101.163 15.6965 102.621 16.9168 103.875C17.5966 104.574 18.5479 105.259 19.0344 106.11C19.7403 107.346 20.4381 108.628 21.0933 109.963C22.0296 111.872 22.3945 114.911 23.9315 116.448C24.2509 116.768 25.3874 118.526 25.3874 118.434" stroke="#C08AFF" stroke-width="3" stroke-linecap="round"/>
<path d="M3.68164 107.315C5.64078 110.145 7.42965 113.074 9.24049 115.992C10.0757 117.338 10.6221 118.963 12.4317 118.963C14.9855 118.963 17.8928 118.986 20.3582 118.301C21.5278 117.976 23.2029 118.058 24.3288 118.433" stroke="#9E7647" stroke-width="3" stroke-linecap="round"/>
<path d="M19.8286 107.051C17.4048 106.497 14.8222 107.013 12.358 107.051C10.6618 107.077 9.05213 107.051 7.37264 107.051C5.75264 107.051 3.5602 106.786 2.35791 106.786" stroke="#E2C488" stroke-width="3" stroke-linecap="round"/>
<path d="M2 106.284C2 108.398 3.27665 110.553 3.81073 112.575C4.48903 115.143 5.1327 117.789 6.20015 120.229C6.67649 121.317 6.78715 122.547 7.33886 123.589C7.72283 124.314 10.7338 123.311 11.3243 123.178C14.3859 122.487 17.6105 122.383 20.7047 121.778C21.9104 121.542 23.0751 121.174 24.2608 120.91C24.7076 120.811 27.0333 120.229 27.4463 120.229" stroke="#1234F5" stroke-width="3" stroke-linecap="round"/>
<path d="M19.564 106.257C20.9526 106.257 22.0068 105.362 23.2552 104.816C23.8388 104.561 24.8383 104.444 25.1228 103.875" stroke="#64D7C0" stroke-width="3" stroke-linecap="round"/>
<path d="M10.2993 118.963C10.1861 119.981 9.23456 120.77 8.96106 121.728C8.78685 122.337 8.18164 124.097 8.18164 123.463" stroke="#64D7C0" stroke-width="3" stroke-linecap="round"/>
</svg>
